<?xml version="1.0" encoding="utf-8"?>
<!-- Generator: Adobe Illustrator 22.0.1, SVG Export Plug-In . SVG Version: 6.00 Build 0)  -->
<svg version="1.1" id="Calque_1" xmlns="http://www.w3.org/2000/svg" xmlns:xlink="http://www.w3.org/1999/xlink" x="0px" y="0px"
	 viewBox="0 0 212.5 356.7" style="enable-background:new 0 0 212.5 356.7;" xml:space="preserve">
<style type="text/css">
	.st0{fill:#28316F;}
	.st1{fill:#8D8D8E;}
	.st2{fill:#010202;}
</style>
<path d="M121,139c0-6.4-5.2-11.5-11.5-11.5c-6.4,0-11.5,5.2-11.5,11.5c0,4.2,2.2,7.8,5.5,9.8v204.7h12.1V148.9
	C118.8,146.8,121,143.2,121,139z"/>
<path d="M203.7,193.9c-1.8-1.7-3.7-3.3-5.6-4.9c-3.8-3.1-7.6-6.2-11.5-9c-7.8-5.8-15.9-11.1-24.2-16.1c-8.3-5-16.8-9.7-25.6-13.9
	c-4.4-2.1-8.8-4.1-13.4-6c-2.3-0.9-4.6-1.8-6.9-2.7c-2.3-0.8-4.6-1.6-7-2.3c0,0,0,0,0,0c0-0.1,0-0.1-0.1-0.1c0.8-2.3,1.4-4.7,2-7
	c0.6-2.4,1.1-4.8,1.6-7.2c1-4.8,1.8-9.6,2.5-14.4c1.4-9.6,2.2-19.3,2.7-29c0.5-9.7,0.5-19.4,0.1-29.1c-0.2-4.9-0.6-9.7-1.1-14.6
	c-0.3-2.4-0.6-4.9-0.9-7.3c-0.4-2.4-0.8-4.9-1.3-7.3c-0.8,2.4-1.4,4.8-2,7.2c-0.6,2.4-1.1,4.8-1.6,7.2c-1,4.8-1.8,9.6-2.5,14.4
	c-1.4,9.6-2.2,19.3-2.7,29c-0.5,9.7-0.5,19.4-0.1,29.1c0.2,4.9,0.6,9.7,1.1,14.6c0.3,2.4,0.6,4.9,0.9,7.3c0.4,2.4,0.8,4.8,1.3,7.2
	c-0.1,0-0.1,0.1-0.1,0.1c0,0,0,0,0,0c-2.4,0.5-4.7,1.2-7.1,1.9c-2.4,0.7-4.7,1.5-7,2.3c-4.6,1.6-9.2,3.4-13.7,5.3
	c-9,3.8-17.7,8-26.3,12.5c-8.6,4.6-16.9,9.5-25,14.8c-4.1,2.7-8.1,5.5-12,8.4c-2,1.5-3.9,3-5.8,4.6c-1.9,1.6-3.8,3.2-5.6,4.9
	c2.5-0.5,4.8-1.2,7.2-1.9s4.7-1.5,7-2.3c4.6-1.6,9.2-3.4,13.7-5.3c9-3.8,17.7-8,26.3-12.6c8.5-4.6,16.9-9.5,25-14.8
	c4.1-2.7,8.1-5.5,12-8.4c2-1.5,3.9-3,5.8-4.6c1.9-1.5,3.7-3.1,5.5-4.8c0,0,0.1,0.1,0.1,0.1c0,0,0.1,0,0.1,0c1.7,1.8,3.5,3.5,5.3,5.1
	c1.8,1.7,3.7,3.3,5.6,4.9c3.8,3.1,7.6,6.2,11.5,9c7.8,5.8,15.9,11.1,24.2,16.1c8.3,5,16.8,9.7,25.6,13.9c4.4,2.1,8.8,4.1,13.4,6
	c2.3,0.9,4.6,1.8,6.9,2.6s4.7,1.6,7.1,2.3C207.4,197.2,205.6,195.5,203.7,193.9z"/>
</svg>
