<?xml version="1.0" encoding="utf-8"?>
<!-- Generator: Adobe Illustrator 22.0.1, SVG Export Plug-In . SVG Version: 6.00 Build 0)  -->
<svg version="1.1" id="Calque_1" xmlns="http://www.w3.org/2000/svg" xmlns:xlink="http://www.w3.org/1999/xlink" x="0px" y="0px"
	 viewBox="0 0 720 301.5" style="enable-background:new 0 0 720 301.5;" xml:space="preserve">
<style type="text/css">
	.st0{fill:none;stroke:url(#SVGID_1_);stroke-width:2;stroke-linecap:round;stroke-linejoin:round;stroke-miterlimit:10;}
	.st1{fill:url(#SVGID_2_);}
	.st2{fill:url(#SVGID_3_);}
	
		.st3{clip-path:url(#SVGID_5_);fill:none;stroke:url(#SVGID_6_);stroke-width:2;stroke-linecap:round;stroke-linejoin:round;stroke-miterlimit:10;}
	
		.st4{clip-path:url(#SVGID_8_);fill:none;stroke:url(#SVGID_9_);stroke-width:2;stroke-linecap:round;stroke-linejoin:round;stroke-miterlimit:10;}
	.st5{fill:none;stroke:url(#SVGID_10_);stroke-width:2;stroke-linecap:round;stroke-linejoin:round;stroke-miterlimit:10;}
	.st6{opacity:0.5;}
	.st7{fill:#5D9E9C;}
	.st8{clip-path:url(#SVGID_12_);}
	.st9{fill:url(#SVGID_13_);}
</style>
<g class="st6">
	<path class="st7" d="M235.1,135.9c0.1,0,0.2,0,0.3,0c0.8,0,1.5-0.6,1.6-1.4c1.2-7.2,3-14.3,5.4-21.2c0.1-0.4,0.1-0.9-0.1-1.3
		c-0.2-0.4-0.5-0.7-1-0.8c-0.2-0.1-0.4-0.1-0.5-0.1c-0.7,0-1.3,0.5-1.6,1.1c-2.4,7-4.3,14.4-5.5,21.7c-0.1,0.4,0,0.9,0.3,1.2
		C234.3,135.6,234.7,135.8,235.1,135.9z"/>
	<path class="st7" d="M237,178.4c-1.2-7.2-1.8-14.5-1.8-21.8v-0.3c0-0.9-0.7-1.7-1.7-1.7c-0.9,0-1.7,0.7-1.7,1.7v0.3
		c0,7.5,0.6,15,1.8,22.3c0.1,0.8,0.8,1.4,1.6,1.4c0.1,0,0.2,0,0.3,0C236.5,180.2,237.1,179.3,237,178.4z"/>
	<path class="st7" d="M314,35.3c0.2,0,0.4,0,0.7-0.1c6.7-2.9,13.7-5.3,20.7-7.1c0.4-0.1,0.8-0.4,1-0.8s0.3-0.8,0.2-1.3
		c-0.2-0.7-0.8-1.3-1.6-1.3c-0.1,0-0.3,0-0.4,0.1c-7.3,1.8-14.4,4.3-21.2,7.2c-0.8,0.4-1.2,1.4-0.9,2.2
		C312.8,34.9,313.4,35.3,314,35.3z"/>
	<path class="st7" d="M249,94c0.2,0.1,0.5,0.2,0.8,0.2c0.6,0,1.2-0.3,1.5-0.9c3.5-6.4,7.5-12.5,12-18.3c0.3-0.4,0.4-0.8,0.3-1.2
		c-0.1-0.4-0.3-0.8-0.6-1.1c-0.4-0.3-0.8-0.4-1-0.4c-0.5,0-1,0.2-1.3,0.6c-4.6,5.9-8.7,12.2-12.3,18.7C247.9,92.5,248.2,93.5,249,94
		z"/>
	<path class="st7" d="M296.2,44.5c0.1-0.4,0-0.9-0.2-1.3c-0.3-0.5-0.8-0.8-1.4-0.8c-0.3,0-0.6,0.1-0.9,0.3
		c-6.2,4.1-12.2,8.7-17.7,13.8c-0.3,0.3-0.5,0.7-0.5,1.2c0,0.4,0.1,0.9,0.4,1.2c0.4,0.5,1,0.5,1.2,0.5c0.4,0,0.8-0.2,1.1-0.4
		c5.4-4.9,11.2-9.4,17.3-13.4C295.8,45.3,296.1,44.9,296.2,44.5z"/>
	<path class="st7" d="M242.3,199.6c-0.2-0.7-0.9-1.1-1.6-1.1c-0.2,0-0.4,0-0.5,0.1c-0.9,0.3-1.3,1.2-1,2.1c2.4,7.1,5.5,14,9,20.5
		c0.3,0.5,0.9,0.9,1.5,0.9c0.3,0,0.5-0.1,0.8-0.2c0.4-0.2,0.7-0.6,0.8-1c0.1-0.4,0.1-0.9-0.1-1.3
		C247.7,213.3,244.7,206.5,242.3,199.6z"/>
	<path class="st7" d="M263.1,238c-0.3-0.4-0.8-0.6-1.3-0.6c-0.3,0-0.6,0.1-1,0.4c-0.4,0.3-0.6,0.7-0.6,1.1c-0.1,0.4,0.1,0.9,0.3,1.2
		c4.6,5.9,9.7,11.4,15.2,16.5c0.3,0.3,0.7,0.4,1.1,0.4c0.3,0,0.8-0.1,1.2-0.5c0.3-0.3,0.5-0.8,0.4-1.2c0-0.4-0.2-0.9-0.5-1.2
		C272.6,249.2,267.6,243.7,263.1,238z"/>
	<path class="st7" d="M440.3,45.8c6.1,4,11.9,8.5,17.2,13.5c0.4,0.4,0.8,0.4,1.1,0.4c0.3,0,0.8-0.1,1.2-0.5c0.3-0.3,0.5-0.7,0.4-1.2
		c0-0.4-0.2-0.9-0.5-1.2c-5.5-5.1-11.4-9.7-17.7-13.8c-0.3-0.2-0.6-0.3-0.9-0.3c-0.6,0-1.1,0.3-1.4,0.8c-0.2,0.4-0.3,0.8-0.2,1.3
		C439.7,45.2,440,45.5,440.3,45.8z"/>
	<path class="st7" d="M314.4,278c-6.7-2.9-13.1-6.4-19.2-10.4c-0.3-0.2-0.6-0.3-0.9-0.3c-0.6,0-1.1,0.3-1.4,0.8
		c-0.5,0.8-0.3,1.8,0.5,2.3c6.3,4.1,12.9,7.7,19.7,10.7c0.2,0.1,0.4,0.1,0.7,0.1c0.7,0,1.3-0.4,1.5-1c0.2-0.4,0.2-0.9,0-1.3
		C315.1,278.5,314.8,278.2,314.4,278z"/>
	<path class="st7" d="M498.4,135c0.1,0.8,0.8,1.4,1.6,1.4c0.1,0,0.2,0,0.3,0c0.9-0.1,1.5-1,1.4-1.9c-1.2-7.4-3.1-14.7-5.5-21.8
		c-0.2-0.7-0.9-1.1-1.6-1.1c-0.2,0-0.4,0-0.5,0.1c-0.4,0.1-0.8,0.4-1,0.8c-0.2,0.4-0.2,0.8-0.1,1.3
		C495.5,120.6,497.3,127.8,498.4,135z"/>
	<path class="st7" d="M355.2,23c0.1,0.9,0.8,1.5,1.6,1.5c0,0,0.1,0,0.1,0c3.5-0.3,7.1-0.4,10.7-0.4c3.7,0,7.5,0.2,11.2,0.5
		c0,0,0.1,0,0.1,0c0.9,0,1.6-0.7,1.7-1.5c0.1-0.9-0.6-1.7-1.5-1.8c-3.8-0.3-7.6-0.5-11.4-0.5c-3.7,0-7.4,0.1-11,0.4
		c-0.4,0-0.8,0.2-1.1,0.6C355.3,22.2,355.2,22.6,355.2,23z"/>
	<path class="st7" d="M400.5,28.2c7.1,1.8,14,4.2,20.7,7.1c0.2,0.1,0.4,0.1,0.7,0.1c0.7,0,1.3-0.4,1.5-1c0.4-0.8,0-1.8-0.9-2.2
		c-6.8-3-14-5.5-21.2-7.3c-0.1,0-0.3-0.1-0.4-0.1c-0.8,0-1.4,0.5-1.6,1.3C399,27.1,399.6,28,400.5,28.2z"/>
	<path class="st7" d="M356.7,288.7c-7.3-0.6-14.5-1.8-21.6-3.6c-0.1,0-0.3-0.1-0.4-0.1c-0.8,0-1.4,0.5-1.6,1.3
		c-0.1,0.4,0,0.9,0.2,1.3c0.2,0.4,0.6,0.7,1,0.8c7.2,1.8,14.7,3.1,22.1,3.7c0,0,0.1,0,0.1,0c0.9,0,1.6-0.7,1.7-1.5
		C358.3,289.6,357.6,288.7,356.7,288.7z"/>
	<path class="st7" d="M400.6,285.1c-0.1,0-0.3,0-0.4,0.1c-7,1.8-14.3,3-21.6,3.6c-0.9,0.1-1.6,0.9-1.5,1.8c0.1,0.9,0.8,1.5,1.7,1.5
		c0,0,0.1,0,0.1,0c7.5-0.6,14.9-1.8,22.1-3.7c0.9-0.2,1.4-1.1,1.2-2C402,285.6,401.3,285.1,400.6,285.1z"/>
	<path class="st7" d="M474.5,237.8c-0.4-0.3-0.8-0.4-1-0.4c-0.5,0-1,0.2-1.3,0.6c-4.5,5.7-9.5,11.1-14.8,16.1
		c-0.3,0.3-0.5,0.7-0.5,1.2c0,0.4,0.1,0.9,0.4,1.2c0.4,0.5,1,0.5,1.2,0.5c0.3,0,0.7-0.1,1.1-0.4c5.5-5.1,10.6-10.6,15.2-16.5
		c0.3-0.4,0.4-0.8,0.3-1.2C475.1,238.5,474.9,238.1,474.5,237.8z"/>
	<path class="st7" d="M444.3,265.7c0,0,0.1,0.1,0.1,0.1C444.3,265.8,444.3,265.7,444.3,265.7z"/>
	<path class="st7" d="M441,267.3c-0.3,0-0.6,0.1-0.9,0.3c-6.1,4-12.6,7.5-19.2,10.4c-0.4,0.2-0.7,0.5-0.9,0.9
		c-0.2,0.4-0.2,0.9,0,1.3c0.3,0.6,0.9,1,1.5,1c0.2,0,0.5,0,0.7-0.1c6.8-3,13.5-6.6,19.7-10.7c0.4-0.2,0.6-0.6,0.7-1.1
		c0.1-0.4,0-0.9-0.2-1.3C442.1,267.6,441.6,267.3,441,267.3z"/>
	<path class="st7" d="M501.9,155.1L501.9,155.1c-0.9,0-1.7,0.7-1.7,1.7c0,7.3-0.6,14.7-1.8,21.8c-0.1,0.4,0,0.9,0.3,1.2
		c0.3,0.4,0.6,0.6,1.1,0.7c0.1,0,0.2,0,0.3,0c0.8,0,1.5-0.6,1.6-1.4c1.2-7.3,1.8-14.9,1.9-22.4C503.5,155.9,502.8,155.1,501.9,155.1
		z"/>
	<path class="st7" d="M495.1,198.8c-0.2-0.1-0.4-0.1-0.5-0.1c-0.7,0-1.3,0.5-1.6,1.1c-2.4,6.9-5.3,13.6-8.8,20
		c-0.2,0.4-0.3,0.8-0.1,1.3c0.1,0.4,0.4,0.8,0.8,1c0.2,0.1,0.5,0.2,0.8,0.2c0.6,0,1.2-0.3,1.5-0.9c3.6-6.6,6.6-13.5,9-20.5
		C496.5,200,496,199.1,495.1,198.8z"/>
	<path class="st7" d="M472,74.2c0.1-0.4,0.3-0.8,0.6-1.1c0.4-0.3,0.8-0.4,1-0.4c0.5,0,1,0.2,1.3,0.6c4.6,5.9,8.7,12.2,12.3,18.8
		c0.2,0.4,0.3,0.8,0.1,1.3s-0.4,0.8-0.8,1c-0.2,0.1-0.5,0.2-0.8,0.2c-0.6,0-1.2-0.3-1.5-0.9c-3.5-6.4-7.5-12.6-12-18.3
		C472.1,75,472,74.6,472,74.2z"/>
</g>
<path class="st7" d="M680.8,154.9H288h-1.2l-0.9-0.9l-9.8-9.8c-0.5-0.5-1.3-0.8-2.1-0.8c-0.8,0-1.5,0.3-2,0.8
	c-0.6,0.6-0.9,1.3-0.9,2.1c0,0.8,0.3,1.5,0.9,2.1l1.5,1.5l5.1,5.1h-7.2h-63.5h-7.2l5.1-5.1l2.5-2.5c0.6-0.6,0.9-1.3,0.9-2.1
	c0-0.8-0.3-1.5-0.9-2.1c-0.5-0.5-1.3-0.8-2.1-0.8c-0.8,0-1.5,0.3-2.1,0.8L193.2,154l-0.9,0.9h-1.2H16.5c-1.6,0-2.9,1.3-2.9,2.9
	s1.3,2.9,2.9,2.9h453.8h4.9l-2.2,4.4c-3.7,7.3-5.6,15.6-5.4,24.1c0.7,27,18.8,46.4,44,47.2c0.9,0,1.7,0,2.5,0
	c21.8,0,27.2-9.3,27.8-10.3c0.7-1.4,0.2-3.2-1.2-3.9c-1-0.5-23-12.9-23.3-33.1c-0.2-12.1,8.1-21.7,15.1-27.7l0.8-0.7h1.1h146.3
	c1.6,0,2.9-1.3,2.9-2.9S682.4,154.9,680.8,154.9z M520.3,165.6c-5.9,7.5-8.9,15.5-8.8,23.6c0.3,16.4,12.3,28.1,19.5,33.6l4.1,3.1
	l-4.7,2c-4.3,1.8-9.8,2.7-16.4,2.7c-0.7,0-1.5,0-2.2,0c-22.4-0.7-37.8-17.4-38.4-41.5c-0.3-10.1,2.6-19.4,8.3-27.1l0.9-1.2h1.5h33.9
	h6.2L520.3,165.6z"/>
<path class="st7" d="M239.9,147.1c19.6,0,35.5-15.9,35.5-35.6S259.6,76,239.9,76c-19.6,0-35.6,15.9-35.6,35.6
	S220.3,147.1,239.9,147.1z M239.9,81.8c16.4,0,29.7,13.3,29.7,29.7c0,16.4-13.3,29.7-29.7,29.7c-16.4,0-29.7-13.3-29.7-29.7
	C210.2,95.2,223.5,81.8,239.9,81.8z"/>
<path class="st7" d="M237.8,36.8v26.8c0,1.6,1.3,2.9,2.9,2.9s2.9-1.3,2.9-2.9V36.8c0-1.6-1.3-2.9-2.9-2.9S237.8,35.2,237.8,36.8z"/>
<path class="st7" d="M287.9,109.4c-1.6,0-2.9,1.3-2.9,2.9s1.3,2.9,2.9,2.9h26.8c1.6,0,2.9-1.3,2.9-2.9s-1.3-2.9-2.9-2.9H287.9z"/>
<path class="st7" d="M165.2,113.7H192c1.6,0,2.9-1.3,2.9-2.9c0-1.6-1.3-2.9-2.9-2.9h-26.8c-1.6,0-2.9,1.3-2.9,2.9
	C162.3,112.4,163.6,113.7,165.2,113.7z"/>
<path class="st7" d="M275,81.3c0.8,0,1.5-0.3,2.1-0.9l19-19c1.1-1.1,1.1-3,0-4.1c-0.5-0.5-1.3-0.8-2.1-0.8c-0.8,0-1.5,0.3-2,0.8
	l-19,19c-1.1,1.1-1.1,3,0,4.1C273.5,81,274.2,81.3,275,81.3z"/>
<path class="st7" d="M205.1,79.4c0.6,0.6,1.3,0.9,2.1,0.9c0.8,0,1.5-0.3,2.1-0.8c1.1-1.1,1.1-3,0-4.1l-19-19
	c-0.5-0.5-1.3-0.8-2.1-0.8c-0.8,0-1.5,0.3-2.1,0.9c-1.1,1.1-1.1,3,0,4.1L205.1,79.4z"/>
<g>
	<defs>
		<rect id="SVGID_11_" x="34" y="371" width="992" height="1404"/>
	</defs>
	<clipPath id="SVGID_1_">
		<use xlink:href="#SVGID_11_"  style="overflow:visible;"/>
	</clipPath>
	<g style="clip-path:url(#SVGID_1_);">
		<g>
			
				<radialGradient id="SVGID_2_" cx="250.185" cy="1546.7198" r="799.4855" gradientTransform="matrix(0.6765 -0.7461 1.0171 0.9466 -1492.2969 292.7368)" gradientUnits="userSpaceOnUse">
				<stop  offset="0" style="stop-color:#7DB9E6"/>
				<stop  offset="0.1159" style="stop-color:#72B1E2"/>
				<stop  offset="0.3084" style="stop-color:#549BD5"/>
				<stop  offset="0.5527" style="stop-color:#147BC0"/>
				<stop  offset="0.5674" style="stop-color:#0C79BE"/>
				<stop  offset="1" style="stop-color:#18509E"/>
			</radialGradient>
			<path class="st1" d="M639.1-16c-56.5,0-120.3,31.4-196.9,29.6S321.9-27.1,239.8-30.8C201.4-32.6,174.6-8,157,18.6v197.8v461.9
				V1768h752v-16V519.1V27.9C852.6-12.8,692.4-16,639.1-16z"/>
		</g>
	</g>
</g>
</svg>
