<?xml version="1.0" encoding="utf-8"?>
<!-- Generator: Adobe Illustrator 22.0.1, SVG Export Plug-In . SVG Version: 6.00 Build 0)  -->
<svg version="1.1" id="Calque_1" xmlns="http://www.w3.org/2000/svg" xmlns:xlink="http://www.w3.org/1999/xlink" x="0px" y="0px"
	 viewBox="0 0 212.5 212.7" style="enable-background:new 0 0 212.5 212.7;" xml:space="preserve">
<style type="text/css">
	.st0{fill:#28316F;}
	.st1{fill:#8D8D8E;}
	.st2{fill:#010202;}
</style>
<g>
	<path d="M196.3,60.7c-7.4-7.8-17.5-12.3-29.4-13c-2-9.4-10.1-34.4-41.6-36.4c-1.3-0.1-2.5-0.1-3.8-0.1c-2.5-0.2-22.4-1.7-36,10.5
		C78.3,28,74.2,36.9,73.2,48c-4.4-1.2-11.4-2.5-21.8-2.5c-9.4,0-19.2,4.7-26.7,13c-9.3,10.2-13.8,24.1-12.4,38.2
		c2.6,27.4,26.5,44.2,42.4,44.2c12.8,0,113.6,0.4,114.6,0.4c0,0,0,0,0,0c0.1,0,0.2,0,0.3,0c0.4,0,10.1-0.7,19.8-5.9
		c9.3-4.9,20.3-14.8,20.3-34.1C209.8,83.8,205.3,70.1,196.3,60.7z M169.2,133.3c-4.6,0-101.9-0.4-114.5-0.4
		c-10.8,0-32.2-12.7-34.5-37c-1.1-11.8,2.7-23.5,10.4-32.1c6-6.6,13.6-10.4,20.8-10.4c16.7,0,23.5,3.6,23.5,3.6c1.2,0.7,2.8,0.7,4,0
		c1.2-0.7,2-2,2-3.5c0-11.4,3.3-20.2,9.8-26c11.6-10.4,29.9-8.5,30.1-8.5c0.1,0,0.3,0,0.4,0c1.2,0,2.3,0,3.5,0.1
		c31.8,2,34.7,31.4,34.8,32.6c0.2,2.1,1.9,3.7,4,3.7c11.2,0,20.5,3.7,27,10.6c7.4,7.8,11.3,20,11.3,35.2
		C201.8,130,171.8,133.1,169.2,133.3z"/>
	<circle cx="155.6" cy="162.7" r="6.4"/>
	<path d="M143.6,168.3c-3.5,0-6.4,2.9-6.4,6.4c0,3.5,2.9,6.4,6.4,6.4c3.5,0,6.4-2.9,6.4-6.4C150,171.2,147.2,168.3,143.6,168.3z"/>
	<circle cx="131.6" cy="186.7" r="6.4"/>
	<path d="M119.6,192.3c-3.5,0-6.4,2.9-6.4,6.4c0,3.5,2.9,6.4,6.4,6.4s6.4-2.9,6.4-6.4C126,195.2,123.2,192.3,119.6,192.3z"/>
	<path d="M119.4,169.1c3.5,0,6.4-2.9,6.4-6.4c0-3.5-2.9-6.4-6.4-6.4c-3.5,0-6.4,2.9-6.4,6.4C113,166.2,115.8,169.1,119.4,169.1z"/>
	<circle cx="107.4" cy="174.7" r="6.4"/>
	<path d="M95.4,180.3c-3.5,0-6.4,2.9-6.4,6.4c0,3.5,2.9,6.4,6.4,6.4s6.4-2.9,6.4-6.4C101.7,183.2,98.9,180.3,95.4,180.3z"/>
	<circle cx="83.4" cy="198.7" r="6.4"/>
	<path d="M83.1,169.1c3.5,0,6.4-2.9,6.4-6.4c0-3.5-2.9-6.4-6.4-6.4s-6.4,2.9-6.4,6.4C76.7,166.2,79.6,169.1,83.1,169.1z"/>
	<path d="M71.1,168.3c-3.5,0-6.4,2.9-6.4,6.4c0,3.5,2.9,6.4,6.4,6.4c3.5,0,6.4-2.9,6.4-6.4C77.5,171.2,74.6,168.3,71.1,168.3z"/>
	<circle cx="59.1" cy="186.7" r="6.4"/>
	<path d="M47.1,192.3c-3.5,0-6.4,2.9-6.4,6.4c0,3.5,2.9,6.4,6.4,6.4s6.4-2.9,6.4-6.4C53.5,195.2,50.6,192.3,47.1,192.3z"/>
	<path d="M46.8,169.1c3.5,0,6.4-2.9,6.4-6.4c0-3.5-2.9-6.4-6.4-6.4s-6.4,2.9-6.4,6.4C40.4,166.2,43.3,169.1,46.8,169.1z"/>
	<path d="M34.8,168.3c-3.5,0-6.4,2.9-6.4,6.4c0,3.5,2.9,6.4,6.4,6.4s6.4-2.9,6.4-6.4C41.2,171.2,38.4,168.3,34.8,168.3z"/>
	<path d="M22.8,180.3c-3.5,0-6.4,2.9-6.4,6.4c0,3.5,2.9,6.4,6.4,6.4c3.5,0,6.4-2.9,6.4-6.4C29.2,183.2,26.4,180.3,22.8,180.3z"/>
	<path d="M10.8,192.3c-3.5,0-6.4,2.9-6.4,6.4c0,3.5,2.9,6.4,6.4,6.4s6.4-2.9,6.4-6.4C17.2,195.2,14.3,192.3,10.8,192.3z"/>
</g>
</svg>
