<?xml version="1.0" encoding="utf-8"?>
<!-- Generator: Adobe Illustrator 22.0.1, SVG Export Plug-In . SVG Version: 6.00 Build 0)  -->
<svg version="1.1" id="Calque_1" xmlns="http://www.w3.org/2000/svg" xmlns:xlink="http://www.w3.org/1999/xlink" x="0px" y="0px"
	 viewBox="0 0 212.5 212.7" style="enable-background:new 0 0 212.5 212.7;" xml:space="preserve">
<style type="text/css">
	.st0{fill:#28316F;}
	.st1{fill:#8D8D8E;}
	.st2{fill:#010202;}
</style>
<path d="M197.1,108.3l-94.3-94.7c-0.8-0.8-1.9-1.2-2.9-1.2c-1.1,0-2.1,0.5-2.9,1.3L7.5,110.5c-1.1,1.2-1.4,2.9-0.7,4.3
	c0.6,1.5,2.1,2.4,3.7,2.4h14.5v84.5c0,2.2,1.8,4,4,4h146.2c2.2,0,4-1.8,4-4v-86.5h15.1c1.6,0,3.1-1,3.7-2.5
	C198.6,111.2,198.2,109.5,197.1,108.3z M175.1,107.1c-2.2,0-4,1.8-4,4v86.5H32.9v-84.5c0-2.2-1.8-4-4-4h-9.4l80.5-86.9l84.5,84.9
	H175.1z"/>
</svg>
