<?xml version="1.0" encoding="utf-8"?>
<!-- Generator: Adobe Illustrator 22.0.1, SVG Export Plug-In . SVG Version: 6.00 Build 0)  -->
<svg version="1.1" id="Calque_1" xmlns="http://www.w3.org/2000/svg" xmlns:xlink="http://www.w3.org/1999/xlink" x="0px" y="0px"
	 viewBox="0 0 438.5 212.7" style="enable-background:new 0 0 438.5 212.7;" xml:space="preserve">
<style type="text/css">
	.st0{fill:#28316F;}
	.st1{fill:#8D8D8E;}
	.st2{fill:#010202;}
</style>
<path class="st1" d="M239.7,193c-1.5,0-2.9-1.2-3-2.8c-0.1-1.7,1.1-3.1,2.7-3.2c4.6-0.4,9.1-1.1,13.6-2.2c1.6-0.4,3.2,0.6,3.6,2.2
	c0.4,1.6-0.6,3.2-2.2,3.6c-4.7,1.2-9.6,2-14.5,2.4C239.9,193,239.8,193,239.7,193z M225.5,193c-0.1,0-0.2,0-0.2,0
	c-4.9-0.4-9.8-1.2-14.5-2.4c-1.6-0.4-2.6-2-2.2-3.6c0.4-1.6,2-2.6,3.6-2.2c4.4,1.1,9,1.9,13.6,2.3c1.7,0.1,2.9,1.6,2.7,3.2
	C228.3,191.8,227,193,225.5,193z M267.3,186.1c-1.2,0-2.3-0.7-2.7-1.8c-0.7-1.5,0-3.3,1.5-4c4.2-1.8,8.3-4,12.1-6.6
	c1.4-0.9,3.2-0.5,4.2,0.9c0.9,1.4,0.5,3.2-0.9,4.2c-4.1,2.7-8.5,5.1-13,7C268.1,186,267.7,186.1,267.3,186.1z M197.9,186
	c-0.4,0-0.8-0.1-1.2-0.3c-4.5-2-8.8-4.3-13-7c-1.4-0.9-1.8-2.8-0.9-4.2c0.9-1.4,2.8-1.8,4.2-0.9c3.8,2.5,7.9,4.7,12.1,6.6
	c1.5,0.7,2.2,2.4,1.5,4C200.2,185.3,199.1,186,197.9,186z M291,170.5c-0.8,0-1.6-0.3-2.2-1c-1.1-1.2-1-3.1,0.2-4.2
	c3.4-3.1,6.5-6.5,9.3-10.1c1-1.3,2.9-1.5,4.2-0.5c1.3,1,1.5,2.9,0.5,4.2c-3,3.9-6.4,7.5-10,10.8C292.5,170.3,291.8,170.5,291,170.5z
	 M174.2,170.5c-0.7,0-1.5-0.3-2-0.8c-3.6-3.3-7-7-10-10.8c-1-1.3-0.8-3.2,0.5-4.2c1.3-1,3.2-0.8,4.2,0.5c2.8,3.6,5.9,7,9.3,10.1
	c1.2,1.1,1.3,3,0.2,4.2C175.8,170.1,175,170.5,174.2,170.5z M308.5,148.1c-0.5,0-1-0.1-1.4-0.4c-1.5-0.8-2-2.6-1.2-4.1
	c2.2-4,4-8.3,5.5-12.6c0.5-1.6,2.2-2.4,3.8-1.9c1.6,0.5,2.4,2.2,1.9,3.8c-1.6,4.6-3.6,9.2-5.9,13.5
	C310.6,147.6,309.6,148.1,308.5,148.1z M156.7,148c-1.1,0-2.1-0.6-2.6-1.6c-2.3-4.3-4.3-8.9-5.9-13.5c-0.5-1.6,0.3-3.3,1.9-3.8
	c1.6-0.5,3.3,0.3,3.8,1.9c1.5,4.3,3.3,8.6,5.5,12.6c0.8,1.5,0.3,3.3-1.2,4.1C157.7,147.9,157.2,148,156.7,148z M317.8,121.3
	c-0.2,0-0.3,0-0.5,0c-1.6-0.3-2.7-1.8-2.5-3.5c0.8-4.5,1.1-9.1,1.1-13.7c0-1.7,1.3-3,3-3c0,0,0,0,0,0c1.7,0,3,1.3,3,3
	c0,4.9-0.4,9.9-1.2,14.7C320.5,120.2,319.2,121.3,317.8,121.3z M147.5,121.2c-1.4,0-2.7-1-3-2.5c-0.8-4.8-1.2-9.8-1.2-14.7v-0.2
	c0-1.7,1.3-3,3-3s3,1.3,3,3v0.2c0,4.6,0.4,9.2,1.1,13.7c0.3,1.6-0.8,3.2-2.5,3.5C147.8,121.2,147.7,121.2,147.5,121.2z M317.8,92.9
	c-1.4,0-2.7-1-3-2.5c-0.7-4.5-1.9-9-3.3-13.3c-0.5-1.6,0.3-3.3,1.9-3.8c1.6-0.5,3.3,0.3,3.8,1.9c1.6,4.6,2.8,9.5,3.6,14.3
	c0.3,1.6-0.8,3.2-2.5,3.4C318.1,92.9,318,92.9,317.8,92.9z M147.5,92.6c-0.2,0-0.3,0-0.5,0c-1.6-0.3-2.7-1.8-2.5-3.5
	c0.8-4.8,2-9.7,3.6-14.3c0.5-1.6,2.2-2.4,3.8-1.9c1.6,0.5,2.4,2.3,1.9,3.8c-1.5,4.3-2.6,8.8-3.4,13.3
	C150.2,91.5,149,92.6,147.5,92.6z M308.6,66c-1.1,0-2.1-0.6-2.6-1.6c-2.2-4-4.7-7.9-7.5-11.5c-1-1.3-0.8-3.2,0.5-4.2
	c1.3-1,3.2-0.8,4.2,0.5c3,3.9,5.7,8,8.1,12.4c0.8,1.5,0.2,3.3-1.2,4.1C309.6,65.9,309.1,66,308.6,66z M156.8,65.7
	c-0.5,0-1-0.1-1.4-0.4c-1.5-0.8-2-2.6-1.2-4.1c2.3-4.3,5.1-8.4,8.1-12.3c1-1.3,2.9-1.5,4.2-0.5c1.3,1,1.5,2.9,0.5,4.2
	c-2.8,3.6-5.4,7.5-7.6,11.5C158.9,65.2,157.9,65.7,156.8,65.7z M291.2,43.6c-0.7,0-1.5-0.3-2-0.8c-3.4-3.1-7-6-10.8-8.5
	c-1.4-0.9-1.8-2.8-0.9-4.2c0.9-1.4,2.8-1.8,4.2-0.9c4.1,2.7,8,5.7,11.6,9.1c1.2,1.1,1.3,3,0.2,4.2C292.8,43.2,292,43.6,291.2,43.6z
	 M174.3,43.4c-0.8,0-1.6-0.3-2.2-1c-1.1-1.2-1-3.1,0.2-4.2c3.6-3.3,7.5-6.4,11.6-9c1.4-0.9,3.2-0.5,4.2,0.9c0.9,1.4,0.5,3.2-0.9,4.2
	c-3.8,2.5-7.5,5.3-10.9,8.4C175.8,43.1,175,43.4,174.3,43.4z M267.4,28c-0.4,0-0.8-0.1-1.2-0.3c-4.2-1.8-8.6-3.4-13-4.5
	c-1.6-0.4-2.6-2-2.2-3.6c0.4-1.6,2-2.6,3.6-2.2c4.8,1.2,9.4,2.8,13.9,4.8c1.5,0.7,2.2,2.4,1.5,4C269.7,27.3,268.6,28,267.4,28z
	 M198.1,27.9c-1.2,0-2.3-0.7-2.8-1.8c-0.7-1.5,0-3.3,1.5-4c4.5-2,9.2-3.6,14-4.8c1.6-0.4,3.2,0.6,3.6,2.2c0.4,1.6-0.6,3.2-2.2,3.6
	c-4.4,1.1-8.8,2.6-13,4.4C198.9,27.8,198.5,27.9,198.1,27.9z M239.9,21c-0.1,0-0.2,0-0.3,0c-4.5-0.4-9.2-0.4-13.8,0
	c-1.6,0.1-3.1-1.1-3.2-2.8s1.1-3.1,2.8-3.2c4.9-0.4,9.9-0.4,14.7,0c1.7,0.1,2.9,1.6,2.7,3.2C242.8,19.8,241.5,21,239.9,21z"/>
<g>
	<path class="st2" d="M434,100.9H181.3l-6.3-6.3c-1.4-1.4-3.9-1.4-5.4,0c-0.7,0.7-1.1,1.7-1.1,2.7s0.4,2,1.1,2.7l1,1h-40.8l1.6-1.6
		c0.7-0.7,1.1-1.7,1.1-2.7s-0.4-2-1.1-2.7c-1.4-1.4-3.9-1.4-5.4,0l-7,7H6.7c-2.1,0-3.8,1.7-3.8,3.8s1.7,3.8,3.8,3.8h291.9
		c-2.6,5-3.8,10.6-3.7,16.5c0.5,18.4,12.9,31.7,30.2,32.2c0.6,0,1.1,0,1.7,0c14.8,0,18.9-6.4,19.6-7.7c0.9-1.8,0.2-4.1-1.6-5.1
		c-0.1-0.1-13.8-7.7-14-19.6c-0.1-7,4.7-12.6,9.1-16.3H434c2.1,0,3.8-1.7,3.8-3.8S436.1,100.9,434,100.9z M323.2,124.9
		c0.2,11.2,8,19.1,13.3,23.1c-2.2,0.9-5.7,1.7-11.2,1.6c-13.3-0.4-22.5-10.4-22.8-24.8c-0.2-6.1,1.6-11.7,5-16.3h21.8
		C325.2,113.7,323.1,119.3,323.2,124.9z"/>
	<path class="st2" d="M125.7,75c0,13.7,11.1,24.8,24.8,24.8c13.7,0,24.8-11.1,24.8-24.8s-11.1-24.8-24.8-24.8
		C136.8,50.2,125.7,61.3,125.7,75z M150.5,92.2c-9.5,0-17.2-7.7-17.2-17.2c0-9.5,7.7-17.2,17.2-17.2c9.5,0,17.2,7.7,17.2,17.2
		C167.7,84.5,159.9,92.2,150.5,92.2z"/>
	<path class="st2" d="M150.9,47.9c2.1,0,3.8-1.7,3.8-3.8V26.9c0-2.1-1.7-3.8-3.8-3.8s-3.8,1.7-3.8,3.8v17.3
		C147.1,46.2,148.8,47.9,150.9,47.9z"/>
	<path class="st2" d="M177.5,75.5c0,2.1,1.7,3.8,3.8,3.8h17.3c2.1,0,3.8-1.7,3.8-3.8s-1.7-3.8-3.8-3.8h-17.3
		C179.2,71.7,177.5,73.4,177.5,75.5z"/>
	<path class="st2" d="M102.4,78.3h17.2c2.1,0,3.8-1.7,3.8-3.8s-1.7-3.8-3.8-3.8h-17.2c-2.1,0-3.8,1.7-3.8,3.8S100.3,78.3,102.4,78.3
		z"/>
	<path class="st2" d="M173,57.5c1,0,2-0.4,2.7-1.1l12.2-12.2c1.5-1.5,1.5-3.9,0-5.4c-1.4-1.4-3.9-1.4-5.4,0L170.3,51
		c-1.5,1.5-1.5,3.9,0,5.4C171,57.1,172,57.5,173,57.5z"/>
	<path class="st2" d="M126.7,55.7c0.7,0.7,1.7,1.1,2.7,1.1c1,0,2-0.4,2.7-1.1c1.5-1.5,1.5-3.9,0-5.4l-12.2-12.2
		c-1.5-1.5-3.9-1.5-5.4,0c-1.5,1.5-1.5,3.9,0,5.4L126.7,55.7z"/>
</g>
</svg>
