<?xml version="1.0" encoding="utf-8"?>
<!-- Generator: Adobe Illustrator 22.0.1, SVG Export Plug-In . SVG Version: 6.00 Build 0)  -->
<svg version="1.1" id="Calque_1" xmlns="http://www.w3.org/2000/svg" xmlns:xlink="http://www.w3.org/1999/xlink" x="0px" y="0px"
	 viewBox="0 0 212.5 212.7" style="enable-background:new 0 0 212.5 212.7;" xml:space="preserve">
<style type="text/css">
	.st0{fill:#28316F;}
	.st1{fill:#8D8D8E;}
	.st2{fill:#010202;}
</style>
<path d="M173.1,33.2c1.1-0.6,1.8-1.6,2-2.9c0.2-1.2-0.2-2.5-1-3.4c-0.8-0.9-20.6-21.7-65.8-21.7C85.9,5.3,63.2,15.4,46.1,33
	c-19.3,19.8-29.5,46.6-28.8,75.5c0.8,29,10.4,53.9,27.9,72c16.7,17.3,39.9,27.2,65.3,28c1.8,0.1,3.5,0.1,5.2,0.1
	c46.7,0,57.8-20.3,58.3-21.2c1-1.9,0.3-4.3-1.6-5.4c-0.5-0.3-50.9-28.3-51.6-73.7C120,62.9,172.5,33.5,173.1,33.2z M112.7,108.5
	c0.7,42.6,38.9,70.2,51.7,78.2c-5.2,5.1-19.7,14.9-53.7,13.8c-49.7-1.5-84-38.6-85.4-92.2C24.6,81.6,34,56.8,51.8,38.6
	c15.7-16.1,36.3-25.3,56.5-25.3c30.6,0,48.6,10.4,56,15.9C150.4,38.1,112,66.4,112.7,108.5z"/>
</svg>
