<?xml version="1.0" encoding="utf-8"?>
<!-- Generator: Adobe Illustrator 22.0.1, SVG Export Plug-In . SVG Version: 6.00 Build 0)  -->
<svg version="1.1" id="Calque_1" xmlns="http://www.w3.org/2000/svg" xmlns:xlink="http://www.w3.org/1999/xlink" x="0px" y="0px"
	 viewBox="0 0 212.5 212.7" style="enable-background:new 0 0 212.5 212.7;" xml:space="preserve">
<style type="text/css">
	.st0{fill:#28316F;}
	.st1{fill:#8D8D8E;}
	.st2{fill:#010202;}
</style>
<g>
	<path d="M42.6,64.9L3.9,103.6c-0.7,0.7-1.1,1.7-1.1,2.7s0.4,2,1.1,2.7L40.7,146c0.8,0.8,1.8,1.1,2.7,1.1c1,0,2-0.4,2.7-1.1
		c1.5-1.5,1.5-4,0-5.5l-34.1-34.1l36-36c1.5-1.5,1.5-4,0-5.5C46.6,63.3,44.2,63.3,42.6,64.9z"/>
	<path d="M108.8,5c-1.5-1.5-4-1.5-5.5,0L66.4,41.9c-1.5,1.5-1.5,4,0,5.5c1.5,1.5,4,1.5,5.5,0L106,13.2l36,36
		c0.8,0.8,1.8,1.1,2.7,1.1s2-0.4,2.7-1.1c1.5-1.5,1.5-4,0-5.5L108.8,5z"/>
	<path d="M207.4,104.4l-36.9-36.9c-1.5-1.5-4-1.5-5.5,0c-1.5,1.5-1.5,4,0,5.5l34.1,34.1l-36,36c-1.5,1.5-1.5,4,0,5.5
		c0.8,0.8,1.8,1.1,2.7,1.1s2-0.4,2.7-1.1l38.8-38.8c0.7-0.7,1.1-1.7,1.1-2.7S208.1,105.1,207.4,104.4z"/>
	<path d="M139.4,166.2l-34.1,34.1l-36-36c-1.5-1.5-4-1.5-5.5,0c-1.5,1.5-1.5,4,0,5.5l38.8,38.8c0.7,0.7,1.7,1.1,2.7,1.1
		s2-0.4,2.7-1.1l36.9-36.9c1.5-1.5,1.5-4,0-5.5C143.4,164.7,140.9,164.7,139.4,166.2z"/>
	<circle cx="105.6" cy="106.8" r="16.7"/>
</g>
</svg>
