<?xml version="1.0" encoding="utf-8"?>
<!-- Generator: Adobe Illustrator 22.0.1, SVG Export Plug-In . SVG Version: 6.00 Build 0)  -->
<svg version="1.1" id="Calque_1" xmlns="http://www.w3.org/2000/svg" xmlns:xlink="http://www.w3.org/1999/xlink" x="0px" y="0px"
	 viewBox="0 0 212.5 212.7" style="enable-background:new 0 0 212.5 212.7;" xml:space="preserve">
<style type="text/css">
	.st0{fill:#28316F;}
	.st1{fill:#8D8D8E;}
	.st2{fill:#010202;}
</style>
<path d="M207.8,96.5c-0.3-2.1-2.2-3.6-4.4-3.3l-37,5L182,68.4c1-1.9,0.3-4.2-1.6-5.2c-1.9-1-4.2-0.3-5.2,1.6L157,99.5l-37,5l21.1-16
	c1.7-1.3,2-3.7,0.7-5.4c-1.3-1.7-3.7-2-5.4-0.7L116,97.8l14.7-34.7l36.8-7.9c2.1-0.5,3.4-2.5,3-4.6c-0.5-2.1-2.5-3.4-4.6-3
	l-31.4,6.8l14.1-33.3c0.8-2-0.1-4.3-2.1-5.1c-2-0.8-4.3,0.1-5.1,2.1l-14.6,34.4l-17.6-28.6c-1.1-1.8-3.5-2.4-5.3-1.3
	c-1.8,1.1-2.4,3.5-1.3,5.3L123,61.3l-14.6,34.5L104,66.4c-0.3-2.1-2.3-3.6-4.4-3.3c-2.1,0.3-3.6,2.3-3.3,4.4l4.4,29.3L75.6,65.2
	l10.9-36.8c0.6-2.1-0.6-4.2-2.6-4.8c-2-0.6-4.2,0.6-4.8,2.6l-9.3,31.6L47.4,29.7c-1.3-1.7-3.8-2-5.5-0.6c-1.7,1.3-2,3.8-0.6,5.5
	l22.5,28.3l-32.8,1.7c-2.1,0.1-3.8,1.9-3.7,4.1c0.1,2.1,1.8,3.7,3.9,3.7c0.1,0,0.1,0,0.2,0l38.3-2l24.1,30.3L67.6,89.9
	c-2-0.8-4.2,0.1-5.1,2.1c-0.8,2,0.1,4.2,2.1,5.1l27.4,11.1L52,113.7L25.9,85.6c-1.5-1.6-3.9-1.7-5.5-0.2c-1.6,1.5-1.7,3.9-0.2,5.5
	L42.6,115l-35.5,4.8c-2.1,0.3-3.6,2.2-3.3,4.4c0.3,1.9,1.9,3.4,3.8,3.4c0.2,0,0.3,0,0.5,0l35.9-4.9l-15.2,29.1
	c-1,1.9-0.3,4.2,1.6,5.2c0.6,0.3,1.2,0.4,1.8,0.4c1.4,0,2.7-0.8,3.4-2.1l17.8-33.9l38.4-5.2l-22.6,17.1c-1.7,1.3-2,3.7-0.7,5.4
	c0.8,1,1.9,1.5,3.1,1.5c0.8,0,1.6-0.3,2.3-0.8l23.6-17.9l-15.8,37.2l-37.5,8.1c-2.1,0.5-3.4,2.5-3,4.6c0.4,1.8,2,3.1,3.8,3.1
	c0.3,0,0.5,0,0.8-0.1l32.2-6.9l-14,33c-0.8,2,0.1,4.3,2.1,5.1c0.5,0.2,1,0.3,1.5,0.3c1.5,0,2.9-0.9,3.6-2.4l14.1-33.3l17.2,27.9
	c0.7,1.2,2,1.8,3.3,1.8c0.7,0,1.4-0.2,2-0.6c1.8-1.1,2.4-3.5,1.3-5.3L89,161.5l15.8-37.4l4.1,26.9c0.3,1.9,1.9,3.3,3.8,3.3
	c0.2,0,0.4,0,0.6,0c2.1-0.3,3.6-2.3,3.3-4.4l-3.8-25.4l23.4,29.5l-10.6,36.1c-0.6,2.1,0.6,4.2,2.6,4.8c0.4,0.1,0.7,0.2,1.1,0.2
	c1.7,0,3.2-1.1,3.7-2.8l9.1-30.9l22.5,28.3c0.8,1,1.9,1.5,3,1.5c0.8,0,1.7-0.3,2.4-0.8c1.7-1.3,2-3.8,0.6-5.5l-23.2-29.3l33.5-1.8
	c2.1-0.1,3.8-1.9,3.7-4.1c-0.1-2.1-2-3.8-4.1-3.7l-39,2.1l-23.2-29.2l24.6,10c0.5,0.2,1,0.3,1.5,0.3c1.5,0,3-0.9,3.6-2.4
	c0.8-2-0.1-4.2-2.1-5.1L122,112l37.3-5.1l25.6,27.6c0.8,0.8,1.8,1.2,2.8,1.2c0.9,0,1.9-0.3,2.6-1c1.6-1.5,1.7-3.9,0.2-5.5
	l-21.9-23.6l35.8-4.9C206.6,100.5,208.1,98.6,207.8,96.5z"/>
</svg>
