<?xml version="1.0" encoding="utf-8"?>
<!-- Generator: Adobe Illustrator 22.0.1, SVG Export Plug-In . SVG Version: 6.00 Build 0)  -->
<svg version="1.1" id="Calque_1" xmlns="http://www.w3.org/2000/svg" xmlns:xlink="http://www.w3.org/1999/xlink" x="0px" y="0px"
	 viewBox="0 0 212.5 212.7" style="enable-background:new 0 0 212.5 212.7;" xml:space="preserve">
<style type="text/css">
	.st0{fill:#28316F;}
	.st1{fill:#8D8D8E;}
	.st2{fill:#010202;}
</style>
<g>
	<path d="M110.6,49.3c2.1,0,3.8-1.7,3.8-3.8V11.2c0-2.1-1.7-3.8-3.8-3.8c-2.1,0-3.8,1.7-3.8,3.8v34.3
		C106.8,47.6,108.5,49.3,110.6,49.3z"/>
	<path d="M205.4,104.1h-34.3c-2.1,0-3.8,1.7-3.8,3.8c0,2.1,1.7,3.8,3.8,3.8h34.3c2.1,0,3.8-1.7,3.8-3.8
		C209.2,105.8,207.5,104.1,205.4,104.1z"/>
	<path d="M154.5,68.3c1,0,1.9-0.4,2.7-1.1l24.3-24.3c1.5-1.5,1.5-3.8,0-5.3c-1.5-1.5-3.8-1.5-5.3,0l-24.3,24.3
		c-1.5,1.5-1.5,3.8,0,5.3C152.6,67.9,153.6,68.3,154.5,68.3z"/>
	<path d="M155.9,148.7c-1.5-1.5-3.8-1.5-5.3,0c-1.5,1.5-1.5,3.8,0,5.3l24.3,24.3c0.7,0.7,1.7,1.1,2.7,1.1s1.9-0.4,2.7-1.1
		c1.5-1.5,1.5-3.8,0-5.3L155.9,148.7z"/>
	<path d="M65,65.8c0.7,0.7,1.7,1.1,2.7,1.1c1,0,1.9-0.4,2.7-1.1c1.5-1.5,1.5-3.8,0-5.3L46,36.3c-1.5-1.5-3.8-1.5-5.3,0
		c-1.5,1.5-1.5,3.8,0,5.3L65,65.8z"/>
	<path d="M144.5,149l-13.5-1.8c14.4-7.7,24.2-22.8,24.2-40.2c0-25.1-20.4-45.6-45.6-45.6c-18.9,0-35.2,11.6-42.1,28.1l-6.7,10.7
		l-9.8-23.1c-0.6-1.4-2.2-2-3.6-1.4c-1.4,0.6-2,2.2-1.4,3.6l9.9,23.3l-22.4-4.9c-1.5-0.3-2.9,0.6-3.2,2.1c-0.3,1.4,0.5,2.8,1.9,3.2
		c0,0,0.1,0,0.1,0l26.2,5.8l10.6,24.9l-15.7-12.1c-1.2-0.9-2.9-0.7-3.8,0.5c-0.9,1.2-0.7,2.9,0.5,3.8l16.4,12.6l-28-3.8l-12.4-23.9
		c-0.7-1.3-2.3-1.9-3.7-1.2c-1.3,0.7-1.9,2.3-1.2,3.7l10.6,20.5l-24.8-3.4c-1.5-0.2-2.9,0.8-3.1,2.3c-0.2,1.4,0.7,2.6,2,3
		c0.1,0,0.2,0.1,0.4,0.1l25.1,3.4l-15.7,16.7c-1,1.1-1,2.8,0.1,3.8c0.3,0.3,0.7,0.5,1.1,0.6c0.9,0.3,2,0,2.7-0.8L38.1,140l26.8,3.6
		L46.5,151c-1.4,0.6-2.1,2.1-1.5,3.5c0.3,0.8,1,1.4,1.8,1.6c0.6,0.2,1.2,0.1,1.7-0.1l19.2-7.7l-17.6,22.2L23.3,169
		c-1.5-0.1-2.8,1.1-2.9,2.6c-0.1,1.3,0.8,2.4,2,2.8c0.2,0.1,0.4,0.1,0.6,0.1l23,1.3l-15.6,19.6c-0.9,1.2-0.7,2.9,0.4,3.8
		c0.3,0.2,0.6,0.4,1,0.5c1,0.3,2.2,0,2.9-0.9l15.7-19.8l6.4,22c0.3,0.9,1,1.6,1.9,1.9c0.5,0.1,1,0.1,1.5,0c1.4-0.4,2.3-1.9,1.9-3.4
		l-7.5-25.7l17.7-22.3l-2.3,18.9c-0.2,1.4,0.7,2.6,2,2.9c0.1,0,0.3,0.1,0.4,0.1c1.5,0.2,2.8-0.9,3-2.4l2.2-17.8l10.3,24.3
		l-13.9,22.3c-0.8,1.3-0.4,2.9,0.9,3.7c0.2,0.1,0.5,0.2,0.7,0.3c1.1,0.3,2.4-0.1,3-1.2l11.9-19.1l9.9,23.3c0.3,0.8,1,1.3,1.8,1.6
		c0.6,0.2,1.2,0.1,1.8-0.1c1.4-0.6,2-2.2,1.4-3.6L95,180.7l22.9,5.1c1.5,0.3,2.9-0.6,3.2-2.1c0.3-1.5-0.6-2.9-2.1-3.2l-26.7-5.9
		l-10.2-24l14.7,11.3c0.3,0.2,0.6,0.4,0.9,0.5c1,0.3,2.2-0.1,2.9-1c0.9-1.2,0.7-2.9-0.5-3.8L86,146.5l1.5,0.2
		c6.6,3.7,14.1,5.8,22.2,5.8c1.2,0,2.4-0.1,3.7-0.2l10.9,21.1c0.4,0.7,1,1.2,1.7,1.4c0.6,0.2,1.3,0.1,2-0.2c1.3-0.7,1.9-2.3,1.2-3.7
		L119,151.6c0.5-0.1,1-0.2,1.4-0.3l23.3,3.2c1.5,0.2,2.9-0.8,3.1-2.3C147,150.6,146,149.2,144.5,149z M109.6,68.9
		c21,0,38.1,17.1,38.1,38.1c0,17.2-11.5,31.8-27.2,36.5l14.1-15.1c1-1.1,1-2.8-0.1-3.8c-1.1-1-2.8-1-3.8,0.1l-18.7,20l-16.1-2.2
		c-2-0.8-4-1.8-5.8-2.9l13.3-5.3c1.4-0.6,2.1-2.1,1.5-3.5c-0.6-1.4-2.1-2.1-3.5-1.5l-16.5,6.6c0,0,0,0-0.1-0.1l16.3-20.5l26.3,1.5
		c1.5,0.1,2.8-1.1,2.9-2.6c0.1-1.5-1.1-2.8-2.6-2.9l-22.5-1.3l15.7-19.8c0.9-1.2,0.7-2.9-0.4-3.8c-1.2-0.9-2.9-0.7-3.8,0.4
		l-16.3,20.5l-6.5-22.6c-0.4-1.4-1.9-2.3-3.4-1.9c-1.4,0.4-2.3,1.9-1.9,3.4l7.6,26.3l-15.3,19.3c-0.2-0.3-0.5-0.6-0.7-0.8l2.2-18.6
		c0.2-1.5-0.9-2.8-2.4-3c-1.5-0.2-2.8,0.9-3,2.4l-1.5,12.1c-2.5-5.1-4-10.8-4-16.9C71.6,86,88.7,68.9,109.6,68.9z M64.1,105.3
		c0,0.6,0,1.1,0,1.7c0,0.2,0,0.5,0,0.7l-0.6-1.4L64.1,105.3z"/>
</g>
</svg>
