<?xml version="1.0" encoding="utf-8"?>
<!-- Generator: Adobe Illustrator 22.0.1, SVG Export Plug-In . SVG Version: 6.00 Build 0)  -->
<svg version="1.1" id="Calque_1" xmlns="http://www.w3.org/2000/svg" xmlns:xlink="http://www.w3.org/1999/xlink" x="0px" y="0px"
	 viewBox="0 0 212.5 212.7" style="enable-background:new 0 0 212.5 212.7;" xml:space="preserve">
<style type="text/css">
	.st0{fill:#28316F;}
	.st1{fill:#8D8D8E;}
	.st2{fill:#010202;}
</style>
<g>
	<path d="M193.7,49.2c-6.8-7.2-16.2-11.4-27.2-12c-1.8-8.6-9.2-31.8-38.4-33.6c-1.2-0.1-2.4-0.1-3.5-0.1c-2.3-0.2-20.6-1.6-33.2,9.7
		C84.7,19,81,27.2,80.1,37.5c-4-1.2-10.5-2.4-20.3-2.4c-8.7,0-17.6,4.4-24.5,12c-8.5,9.4-12.7,22.3-11.5,35.2
		c1.1,11.5,6.6,22.2,15.3,30.1c7.3,6.6,16.4,10.7,23.8,10.7c11.9,0,105.1,0.4,106,0.4c0,0,0,0,0,0c0.1,0,0.2,0,0.2,0
		c0.4,0,9.3-0.7,18.2-5.4c8.5-4.5,18.7-13.6,18.7-31.4C206.1,70.5,201.9,57.9,193.7,49.2z M168.8,116.4c-4.2,0-94.3-0.4-105.9-0.4
		c-10,0-29.9-11.8-32.1-34.3c-1.1-11,2.5-21.9,9.7-29.8c5.6-6.1,12.6-9.7,19.3-9.7c15.5,0,21.8,3.4,21.8,3.4c1.1,0.6,2.4,0.6,3.5,0
		c1.1-0.6,1.8-1.8,1.8-3.1c0-10.6,3.1-18.8,9.1-24.2c10.8-9.7,27.8-7.9,28-7.9c0.1,0,0.3,0,0.4,0c1.1,0,2.1,0,3.3,0.1
		c29.5,1.8,32.2,29.2,32.3,30.3c0.1,1.8,1.7,3.2,3.5,3.2c10.4,0,19,3.4,25.1,9.8c6.8,7.3,10.5,18.6,10.5,32.7
		C199,113.3,171.1,116.2,168.8,116.4z"/>
	<path d="M98.9,127.8H77.6c-1,0-2,0.5-2.7,1.3l-26.3,31.5c-0.9,1.1-1.1,2.5-0.5,3.8c0.6,1.2,1.8,2,3.2,2h14l-23.5,37.4
		c-1,1.5-0.6,3.6,0.8,4.7c0.6,0.5,1.4,0.7,2.1,0.7c1,0,1.9-0.4,2.6-1.1l47.6-51.6c1-1,1.2-2.5,0.6-3.8c-0.6-1.3-1.8-2.1-3.2-2.1
		h-5.6l14.8-16.8c0.9-1,1.1-2.5,0.6-3.8C101.5,128.6,100.3,127.8,98.9,127.8z M76.3,151.7c-0.9,1-1.1,2.5-0.6,3.8
		c0.6,1.3,1.8,2.1,3.2,2.1h5.4l-16.2,17.6l6.5-10.4c0.7-1.1,0.7-2.5,0.1-3.6c-0.6-1.1-1.8-1.8-3.1-1.8H58.8l20.4-24.4h11.8
		L76.3,151.7z"/>
	<path d="M161.8,127.8h-21.3c-1,0-2,0.5-2.7,1.3l-26.3,31.5c-0.9,1.1-1.1,2.5-0.5,3.8c0.6,1.2,1.8,2,3.2,2h14l-23.5,37.4
		c-1,1.5-0.6,3.6,0.8,4.7c0.6,0.5,1.4,0.7,2.1,0.7c1,0,1.9-0.4,2.6-1.1l47.6-51.6c1-1,1.2-2.5,0.6-3.8c-0.6-1.3-1.8-2.1-3.2-2.1
		h-5.6l14.8-16.8c0.9-1,1.1-2.5,0.6-3.8C164.5,128.6,163.2,127.8,161.8,127.8z M139.2,151.7c-0.9,1-1.1,2.5-0.6,3.8
		c0.6,1.3,1.8,2.1,3.2,2.1h5.4L131,175.1l6.5-10.4c0.7-1.1,0.7-2.5,0.1-3.6c-0.6-1.1-1.8-1.8-3.1-1.8h-12.8l20.4-24.4H154
		L139.2,151.7z"/>
</g>
</svg>
