<?xml version="1.0" encoding="utf-8"?>
<!-- Generator: Adobe Illustrator 22.0.1, SVG Export Plug-In . SVG Version: 6.00 Build 0)  -->
<svg version="1.1" id="Calque_1" xmlns="http://www.w3.org/2000/svg" xmlns:xlink="http://www.w3.org/1999/xlink" x="0px" y="0px"
	 viewBox="0 0 212.5 212.7" style="enable-background:new 0 0 212.5 212.7;" xml:space="preserve">
<style type="text/css">
	.st0{fill:#28316F;}
	.st1{fill:#8D8D8E;}
	.st2{fill:#010202;}
</style>
<g>
	<path d="M175.1,92.4c0-22.4-18.2-40.6-40.6-40.6c-17.1,0-32.3,10.8-38.1,26.6c0,0,0,0,0,0C94,78.1,77.5,77,66.1,87.2
		c-5.8,5.2-9.3,12.4-10.3,21.4c-3.7-1-9.4-1.9-17.4-1.9c-8,0-16.2,4-22.6,11C8.1,126.3,4.3,138,5.4,149.8
		c2.2,23,22.3,37.1,35.8,37.1c10.6,0,93.8,0.3,94.7,0.3c0,0,0,0,0,0c0.1,0,0.2,0,0.3,0c11.7-0.8,33.8-8.9,33.8-33.7
		c0-12.7-2.9-23-8.5-30.8C170.1,115.1,175.1,104,175.1,92.4z M134.5,59.7c18,0,32.6,14.6,32.6,32.6c0,9.4-4.1,18.4-11.1,24.5
		c-0.1-0.1-0.1-0.1-0.2-0.2c-0.6-0.5-1.3-1-1.9-1.5c0,0-0.1-0.1-0.1-0.1c-0.7-0.5-1.4-0.9-2.1-1.4c-0.1-0.1-0.3-0.2-0.4-0.2
		c-0.7-0.4-1.4-0.8-2.2-1.2c-0.1-0.1-0.3-0.1-0.4-0.2c-0.8-0.4-1.5-0.7-2.3-1c-0.1,0-0.2-0.1-0.2-0.1c-0.8-0.3-1.6-0.6-2.4-0.8
		c-0.1,0-0.2-0.1-0.3-0.1c-0.8-0.2-1.7-0.5-2.5-0.7c-0.2,0-0.3-0.1-0.5-0.1c-0.9-0.2-1.7-0.3-2.6-0.5c-0.1,0-0.3,0-0.5-0.1
		c-0.9-0.1-1.9-0.2-2.8-0.3c-0.1-0.2-0.1-0.5-0.2-0.8c0-0.1-0.1-0.2-0.1-0.3c0-0.2-0.1-0.4-0.1-0.5c0-0.1-0.1-0.3-0.1-0.4
		c0-0.2-0.1-0.3-0.1-0.5c0-0.1-0.1-0.3-0.1-0.4c-0.1-0.2-0.1-0.3-0.2-0.5c0-0.2-0.1-0.3-0.1-0.5c-0.1-0.2-0.1-0.4-0.2-0.5
		c-0.1-0.2-0.1-0.3-0.2-0.5c-0.1-0.2-0.1-0.4-0.2-0.5c-0.1-0.2-0.1-0.3-0.2-0.5c-0.1-0.2-0.1-0.4-0.2-0.6c-0.1-0.2-0.1-0.3-0.2-0.5
		c-0.1-0.2-0.2-0.4-0.2-0.6c-0.1-0.2-0.2-0.4-0.2-0.5c-0.1-0.2-0.2-0.4-0.3-0.6c-0.1-0.2-0.2-0.4-0.3-0.5c-0.1-0.2-0.2-0.4-0.3-0.6
		c-0.1-0.2-0.2-0.4-0.3-0.5c-0.1-0.2-0.2-0.4-0.3-0.6c-0.1-0.2-0.2-0.4-0.3-0.5c-0.1-0.2-0.3-0.4-0.4-0.7c-0.1-0.2-0.2-0.3-0.3-0.5
		c-0.2-0.3-0.3-0.5-0.5-0.8c-0.1-0.2-0.2-0.3-0.3-0.5c-0.2-0.3-0.5-0.7-0.7-1c-0.1-0.2-0.2-0.3-0.3-0.5c-0.2-0.2-0.3-0.5-0.5-0.7
		c-0.1-0.2-0.3-0.3-0.4-0.5c-0.2-0.2-0.3-0.4-0.5-0.6c-0.1-0.2-0.3-0.3-0.4-0.5c-0.2-0.2-0.4-0.4-0.5-0.6c-0.2-0.2-0.3-0.3-0.5-0.5
		c-0.2-0.2-0.4-0.4-0.6-0.6c-0.2-0.2-0.3-0.3-0.5-0.5c-0.2-0.2-0.4-0.4-0.6-0.6c-0.2-0.2-0.4-0.3-0.5-0.5c-0.2-0.2-0.4-0.4-0.7-0.6
		c-0.2-0.2-0.4-0.3-0.6-0.5c-0.2-0.2-0.5-0.4-0.7-0.5c-0.2-0.2-0.4-0.3-0.6-0.5c-0.2-0.2-0.5-0.3-0.7-0.5c-0.2-0.1-0.4-0.3-0.6-0.4
		c-0.3-0.2-0.5-0.3-0.8-0.5c-0.2-0.1-0.4-0.3-0.7-0.4c-0.3-0.2-0.6-0.3-0.9-0.5c-0.2-0.1-0.4-0.2-0.7-0.4c-0.3-0.2-0.7-0.3-1-0.5
		c-0.2-0.1-0.4-0.2-0.6-0.3c-0.4-0.2-0.9-0.4-1.3-0.6c-0.1-0.1-0.3-0.1-0.4-0.2c-0.6-0.2-1.2-0.4-1.8-0.6c-0.2-0.1-0.4-0.1-0.5-0.2
		c-0.4-0.1-0.9-0.3-1.4-0.4c-0.2-0.1-0.5-0.1-0.7-0.2c-0.4-0.1-0.8-0.2-1.2-0.3c-0.3-0.1-0.6-0.1-0.9-0.2c-0.3-0.1-0.6-0.1-0.9-0.2
		C109.9,67.5,121.5,59.7,134.5,59.7z M135.7,179.3c-4.2,0-84.2-0.3-94.5-0.3c-8.5,0-25.9-10.6-27.8-29.9c-0.9-9.6,2.1-19,8.4-26
		c4.8-5.3,10.9-8.4,16.6-8.4c13.6,0,19,2.9,19.1,2.9c1.2,0.7,2.8,0.7,4,0c1.2-0.7,2-2,2-3.5c0-9.2,2.6-16.3,7.9-21
		c9.3-8.4,24.2-6.9,24.3-6.9c0.1,0,0.3,0,0.5,0c0.9,0,1.9,0,2.8,0.1c0.8,0.1,1.6,0.1,2.3,0.2c0,0,0.1,0,0.1,0
		c2.2,0.3,4.2,0.7,6.1,1.3c0.1,0,0.1,0,0.2,0.1c0.6,0.2,1.1,0.4,1.6,0.6c0.3,0.1,0.6,0.2,0.9,0.4c0.3,0.1,0.6,0.2,0.8,0.4
		c0.5,0.2,1,0.5,1.5,0.8c0,0,0.1,0,0.1,0c0.5,0.3,1,0.6,1.5,0.9c0,0,0,0,0,0c11.5,7.4,12.8,20.9,12.9,21.7c0,0.2,0.1,0.3,0.1,0.4
		c0,0.1,0,0.2,0.1,0.3c0,0.2,0.1,0.3,0.2,0.4c0,0.1,0.1,0.2,0.1,0.3c0.1,0.1,0.2,0.3,0.2,0.4c0,0.1,0.1,0.2,0.1,0.2
		c0.1,0.1,0.2,0.2,0.3,0.4c0.1,0.1,0.1,0.1,0.2,0.2c0.1,0.1,0.3,0.2,0.4,0.3c0.1,0,0.1,0.1,0.2,0.1c0.1,0.1,0.3,0.2,0.4,0.2
		c0.1,0,0.1,0.1,0.2,0.1c0.2,0.1,0.3,0.1,0.5,0.1c0.1,0,0.2,0.1,0.2,0.1c0.2,0,0.5,0.1,0.8,0.1c9,0,16.5,2.9,21.8,8.5
		c6,6.3,9.1,16.2,9.1,28.6C161.9,176.5,137.9,179.1,135.7,179.3z"/>
	<path d="M91,61.8c0.8,0.7,1.8,1.1,2.8,1.1c1.1,0,2.1-0.4,2.9-1.2c1.5-1.6,1.5-4.1-0.1-5.7L81.6,41.8c-1.6-1.5-4.1-1.5-5.7,0.1
		c-1.5,1.6-1.5,4.1,0.1,5.7L91,61.8z"/>
	<path d="M130.4,43.9C130.5,43.9,130.5,43.9,130.4,43.9c2.2,0,4-1.8,4-4l0.1-20.5c0-2.2-1.8-4-4-4c0,0,0,0,0,0c-2.2,0-4,1.8-4,4
		l-0.1,20.5C126.5,42.1,128.2,43.9,130.4,43.9z"/>
	<path d="M169.5,57.5c1,0,2-0.4,2.7-1.1l15-14.1c1.6-1.5,1.7-4,0.2-5.7c-1.5-1.6-4-1.7-5.7-0.2l-15,14.1c-1.6,1.5-1.7,4-0.2,5.7
		C167.4,57.1,168.4,57.5,169.5,57.5z"/>
	<path d="M207.2,88.5l-20.5-1.2c-2.2-0.1-4.1,1.6-4.2,3.8s1.6,4.1,3.8,4.2l20.5,1.2c0.1,0,0.2,0,0.2,0c2.1,0,3.9-1.6,4-3.8
		C211.1,90.5,209.4,88.6,207.2,88.5z"/>
	<path d="M173.7,126.9c-1.4-1.7-3.9-1.9-5.6-0.5c-1.7,1.4-1.9,3.9-0.5,5.6l13.2,15.7c0.8,0.9,1.9,1.4,3.1,1.4c0.9,0,1.8-0.3,2.6-0.9
		c1.7-1.4,1.9-3.9,0.5-5.6L173.7,126.9z"/>
</g>
</svg>
