<?xml version="1.0" encoding="utf-8"?>
<!-- Generator: Adobe Illustrator 22.0.1, SVG Export Plug-In . SVG Version: 6.00 Build 0)  -->
<svg version="1.1" id="Calque_1" xmlns="http://www.w3.org/2000/svg" xmlns:xlink="http://www.w3.org/1999/xlink" x="0px" y="0px"
	 viewBox="0 0 212.5 212.7" style="enable-background:new 0 0 212.5 212.7;" xml:space="preserve">
<style type="text/css">
	.st0{fill:#28316F;}
	.st1{fill:#8D8D8E;}
	.st2{fill:#010202;}
</style>
<g>
	<path d="M204.1,70.8C204.1,70.8,204.1,70.8,204.1,70.8c-2.2-4.7-4.9-8.9-8.2-12.4c-7.7-8.1-18.2-12.8-30.5-13.6
		C163.2,34.8,154.6,9,121.9,7c-1.4-0.1-2.7-0.1-4-0.1c-1.3-0.1-7.3-0.6-14.8,0.7c-12.5,2.1-33,9.8-35.6,37.5
		c-4.6-1.3-11.8-2.5-22.4-2.5c-9.9,0-20,5-27.9,13.6C7.6,66.7,2.8,81.3,4.3,96C7,124.6,32,142.1,48.6,142.1
		c13.3,0,118,0.4,119.1,0.4c0,0,0,0,0,0c0.1,0,0.2,0,0.3,0c0.4,0,10.5-0.8,20.7-6.1c9.7-5.1,21.2-15.5,21.2-35.6
		C209.9,89.2,208,79.1,204.1,70.8z M167.5,133.7c-5,0-105.9-0.4-118.9-0.4c-11.1,0-33.2-13.1-35.6-38.2C11.8,82.9,15.8,70.8,23.8,62
		c6.2-6.8,14-10.7,21.4-10.7c17.3,0,24.3,3.7,24.3,3.7c1.4,0.8,3,0.8,4.4,0c1.4-0.8,2.2-2.2,2.2-3.8c0-20.1,9.6-31.9,28.6-35
		c7-1.2,12.6-0.6,12.6-0.6c0.2,0,0.3,0,0.5,0c1.2,0,2.4,0,3.6,0.1c32.8,2,35.8,32.4,35.9,33.6c0.2,2.3,2.1,4,4.4,4
		c11.5,0,21.1,3.8,27.9,10.9c2.6,2.8,4.9,6.2,6.6,10.1v0c3.3,7.2,5,16.1,5,26.3C201.1,130.3,170.2,133.5,167.5,133.7z"/>
	<path d="M140.8,178.9H35.1c-1.6,0-2.9,1.3-2.9,2.9s1.3,2.9,2.9,2.9H141c0.1,0,0.2,0,0.3,0c0.1,0,7.8-0.7,11.9,3.1
		c1.7,1.6,2.6,3.7,2.6,6.6c0,3.7-1,6.4-3,7.9c-3.3,2.5-9.1,1.6-11,1.1c-1.5-0.4-3.1,0.5-3.6,2c-0.4,1.5,0.5,3.1,2,3.6
		c0.2,0.1,2.9,0.8,6.3,0.8c3.1,0,6.7-0.6,9.7-2.8c3.5-2.6,5.3-6.8,5.3-12.5c0-4.5-1.5-8.2-4.5-10.9
		C151.3,178.3,142.2,178.8,140.8,178.9z"/>
	<path d="M178,148.1c-6.3-4.7-15.7-2.1-16-2c-1.5,0.4-2.4,2-2,3.6c0.4,1.5,2,2.4,3.6,2c1.9-0.5,7.7-1.4,11,1.1c2,1.5,3,4.1,3,7.9
		c0,2.9-0.8,5-2.6,6.6c-4.1,3.8-11.8,3.1-11.9,3.1c-0.1,0-0.2,0-0.3,0H57c-1.6,0-2.9,1.3-2.9,2.9s1.3,2.9,2.9,2.9h105.7
		c0.3,0,0.9,0.1,1.8,0.1c3.3,0,9.9-0.6,14.4-4.6c3-2.7,4.5-6.4,4.5-10.9C183.3,155,181.5,150.8,178,148.1z"/>
	<path d="M148.5,166.8c1.6,0,2.9-1.3,2.9-2.9s-1.3-2.9-2.9-2.9H54.2c-1.6,0-2.9,1.3-2.9,2.9s1.3,2.9,2.9,2.9H148.5z"/>
</g>
</svg>
