<?xml version="1.0" encoding="utf-8"?>
<!-- Generator: Adobe Illustrator 22.0.1, SVG Export Plug-In . SVG Version: 6.00 Build 0)  -->
<svg version="1.1" id="Calque_1" xmlns="http://www.w3.org/2000/svg" xmlns:xlink="http://www.w3.org/1999/xlink" x="0px" y="0px"
	 viewBox="0 0 212.5 212.7" style="enable-background:new 0 0 212.5 212.7;" xml:space="preserve">
<style type="text/css">
	.st0{fill:#28316F;}
	.st1{fill:#8D8D8E;}
	.st2{fill:#010202;}
</style>
<path d="M168.4,200.3C168.4,200.3,168.4,200.3,168.4,200.3c-1.1,0-106.7-0.4-120.2-0.4c-8.3,0-18.6-4.6-27-12.1
	c-9.9-8.9-16.1-21-17.4-34.1c-1.4-14.7,3.3-29.3,13-39.9c7.8-8.6,18-13.6,27.8-13.6c11,0,18.5,1.4,23,2.7c1-11.7,5.3-21,12.8-27.7
	c14.3-12.8,35-11.2,37.7-10.9c1.3,0,2.6,0,4,0.1c33.1,2.1,41.5,28.4,43.5,38.1c12.5,0.7,23.1,5.4,30.8,13.6l0,0
	c9.3,9.9,14,24.2,14,42.5c0,20.1-11.5,30.4-21.2,35.5c-10.2,5.4-20.2,6.1-20.7,6.2C168.6,200.3,168.5,200.3,168.4,200.3z
	 M44.7,108.2c-7.6,0-15.6,4-21.9,11c-8.2,9-12.2,21.3-11,33.8c2.5,25.6,25,38.9,36.4,38.9c13.2,0,115.3,0.4,120,0.4
	c2.6-0.2,34.3-3.5,34.3-33.7c0-16-4.1-28.8-11.9-37l0,0c-6.9-7.3-16.7-11.2-28.4-11.2c-2.1,0-3.8-1.6-4-3.7
	c-0.1-1.3-3.2-32.3-36.6-34.4c-1.3-0.1-2.5-0.1-3.7-0.1c-0.2,0-0.3,0-0.5,0c-0.2,0-19.5-2-31.7,9c-6.9,6.1-10.3,15.4-10.3,27.4
	c0,1.4-0.8,2.8-2,3.5c-1.2,0.7-2.8,0.7-4,0C69.4,112,62.4,108.2,44.7,108.2z"/>
</svg>
