<?xml version="1.0" encoding="utf-8"?>
<!-- Generator: Adobe Illustrator 22.0.1, SVG Export Plug-In . SVG Version: 6.00 Build 0)  -->
<svg version="1.1" id="Calque_1" xmlns="http://www.w3.org/2000/svg" xmlns:xlink="http://www.w3.org/1999/xlink" x="0px" y="0px"
	 viewBox="0 0 212.5 212.7" style="enable-background:new 0 0 212.5 212.7;" xml:space="preserve">
<style type="text/css">
	.st0{fill:#28316F;}
	.st1{fill:#8D8D8E;}
	.st2{fill:#010202;}
</style>
<path d="M52.9,213.3c-0.9,0-1.7-0.3-2.4-0.8c-1.6-1.3-2.1-3.6-1-5.3l69.2-110.2H70.7c-1.6,0-3-0.9-3.6-2.3c-0.7-1.4-0.4-3.1,0.6-4.3
	l71.5-85.6c0.8-0.9,1.9-1.4,3.1-1.4h57.9c1.6,0,3,0.9,3.6,2.4s0.4,3.1-0.6,4.3l-48.4,54.9h27.7c1.6,0,3,0.9,3.7,2.4
	c0.6,1.5,0.4,3.1-0.7,4.3L55.9,212C55.1,212.8,54,213.3,52.9,213.3z M79.2,88.9H126c1.5,0,2.8,0.8,3.5,2.1c0.7,1.3,0.7,2.8-0.1,4.1
	l-50,79.7l93.9-101.8h-27.4c-1.6,0-3-0.9-3.6-2.4s-0.4-3.1,0.6-4.3l48.4-54.9H144L79.2,88.9z"/>
</svg>
