<?xml version="1.0" encoding="utf-8"?>
<!-- Generator: Adobe Illustrator 22.0.1, SVG Export Plug-In . SVG Version: 6.00 Build 0)  -->
<svg version="1.1" id="Calque_1" xmlns="http://www.w3.org/2000/svg" xmlns:xlink="http://www.w3.org/1999/xlink" x="0px" y="0px"
	 viewBox="0 0 212.5 212.7" style="enable-background:new 0 0 212.5 212.7;" xml:space="preserve">
<style type="text/css">
	.st0{fill:#28316F;}
	.st1{fill:#8D8D8E;}
	.st2{fill:#010202;}
</style>
<g>
	<path d="M191.5,50.1c-6.9-7.3-16.4-11.5-27.6-12.2c-1.8-8.8-9.5-32.2-39-34.1c-1.2-0.1-2.4-0.1-3.6-0.1c-2.4-0.2-21-1.6-33.8,9.8
		c-6.7,6-10.5,14.3-11.5,24.7C72,37,65.4,35.8,55.7,35.8c-8.8,0-17.9,4.4-25,12.2C22,57.6,17.8,70.6,19.1,83.8
		c2.5,25.6,24.8,41.4,39.8,41.4c12,0,106.4,0.4,107.4,0.4c0,0,0,0,0,0c0.1,0,0.2,0,0.3,0c0.4,0,9.4-0.7,18.5-5.5
		c8.7-4.6,19-13.9,19-31.9C204.1,71.8,199.9,58.9,191.5,50.1z M166.1,118.1c-4.3,0-95.5-0.4-107.3-0.4c-10.1,0-30.2-11.9-32.4-34.7
		C25.4,72,29,61,36.2,53c5.6-6.2,12.7-9.8,19.5-9.8c15.7,0,22,3.4,22,3.4c1.2,0.7,2.6,0.7,3.7,0c1.2-0.7,1.9-1.9,1.9-3.2
		c0-10.7,3.1-18.9,9.2-24.4c10.9-9.8,28.1-8,28.2-8c0.1,0,0.3,0,0.4,0c1.1,0,2.2,0,3.3,0.1c29.8,1.9,32.5,29.4,32.6,30.6
		c0.2,1.9,1.8,3.4,3.7,3.4c10.5,0,19.2,3.4,25.3,9.9c6.9,7.3,10.6,18.8,10.6,33C196.6,115,168.5,117.9,166.1,118.1z"/>
	<path d="M152.4,141.3l-28.1,29c-1.4,1.5-1.4,3.8,0.1,5.3c0.7,0.7,1.7,1.1,2.6,1.1c1,0,1.9-0.4,2.7-1.1l28.1-29
		c1.4-1.5,1.4-3.8-0.1-5.3C156.2,139.8,153.8,139.8,152.4,141.3z"/>
	<path d="M114.1,180.7l-4,4.1c-1.4,1.5-1.4,3.8,0.1,5.3c0.7,0.7,1.7,1.1,2.6,1.1c1,0,1.9-0.4,2.7-1.1l4-4.1c1.4-1.5,1.4-3.8-0.1-5.3
		C117.8,179.2,115.5,179.3,114.1,180.7z"/>
	<path d="M55.1,141.2c-1.5-1.4-3.8-1.4-5.3,0.1l-28.1,29c-1.4,1.5-1.4,3.8,0.1,5.3c0.7,0.7,1.7,1.1,2.6,1.1c1,0,1.9-0.4,2.7-1.1
		l28.1-29C56.6,145,56.5,142.6,55.1,141.2z"/>
	<path d="M11.5,180.7l-4,4.1c-1.4,1.5-1.4,3.8,0.1,5.3c0.7,0.7,1.7,1.1,2.6,1.1c1,0,1.9-0.4,2.7-1.1l4-4.1c1.4-1.5,1.4-3.8-0.1-5.3
		C15.3,179.2,12.9,179.3,11.5,180.7z"/>
	<path d="M110.5,157.1c-0.4-1.3-1.6-2.2-2.9-2.3l-5.4-0.4l15.4-14.9c1-0.9,1.3-2.3,0.8-3.6c-0.5-1.2-1.6-2.1-2.9-2.2l-20.3-1.6
		c-1-0.1-2,0.3-2.7,1l-27.4,28.1c-0.9,0.9-1.2,2.3-0.7,3.6c0.5,1.2,1.6,2.1,2.9,2.2l13.3,1l-25.2,33.9c-1,1.4-0.8,3.4,0.5,4.5
		c0.6,0.5,1.3,0.8,2,0.9c0.9,0.1,1.8-0.2,2.6-0.9l49.2-45.7C110.6,159.7,111,158.3,110.5,157.1z M82.6,176.5l7-9.5
		c0.7-1,0.9-2.3,0.4-3.4c-0.5-1.1-1.6-1.9-2.8-2L75,160.8L96.3,139l11.3,0.9l-15.4,14.9c-1,0.9-1.3,2.3-0.8,3.6
		c0.5,1.2,1.6,2.1,2.9,2.2l5.1,0.4L82.6,176.5z"/>
</g>
</svg>
