<?xml version="1.0" encoding="utf-8"?>
<!-- Generator: Adobe Illustrator 22.0.1, SVG Export Plug-In . SVG Version: 6.00 Build 0)  -->
<svg version="1.1" id="Calque_1" xmlns="http://www.w3.org/2000/svg" xmlns:xlink="http://www.w3.org/1999/xlink" x="0px" y="0px"
	 viewBox="0 0 212.5 212.7" style="enable-background:new 0 0 212.5 212.7;" xml:space="preserve">
<style type="text/css">
	.st0{fill:#28316F;}
	.st1{fill:#8D8D8E;}
	.st2{fill:#010202;}
</style>
<g>
	<path d="M195.5,58c-7.2-7.7-17.1-12-28.8-12.7c-1.9-9.2-9.9-33.7-40.8-35.6c-1.3-0.1-2.5-0.1-3.7-0.1c-2.5-0.2-21.9-1.7-35.3,10.3
		c-7,6.2-11,14.9-12,25.8c-4.3-1.2-11.2-2.5-21.3-2.5c-9.2,0-18.7,4.6-26.1,12.7c-9.1,10-13.5,23.6-12.2,37.4
		c2.6,26.8,25.9,43.2,41.6,43.2c12.5,0,111.2,0.4,112.2,0.4c0,0,0,0,0,0c0.1,0,0.2,0,0.3,0c0.4,0,9.8-0.7,19.4-5.8
		c9.1-4.8,19.9-14.5,19.9-33.3C208.6,80.7,204.2,67.3,195.5,58z M169,129.2c-4.5,0-99.8-0.4-112.1-0.4c-10.6,0-31.5-12.4-33.8-36.2
		C22,81,25.7,69.5,33.3,61.1C39.1,54.7,46.6,51,53.6,51c16.4,0,23,3.5,23,3.6c1.2,0.7,2.7,0.7,3.9,0c1.2-0.7,2-2,2-3.4
		c0-11.2,3.2-19.8,9.6-25.5c11.4-10.2,29.3-8.4,29.5-8.3c0.1,0,0.3,0,0.4,0c1.1,0,2.3,0,3.4,0.1c31.1,1.9,34,30.7,34.1,31.9
		c0.2,2,1.9,3.6,3.9,3.6c10.9,0,20.1,3.6,26.4,10.4c7.2,7.7,11,19.6,11,34.5C200.8,125.9,171.4,129,169,129.2z"/>
	<path d="M154.6,153.4l-29.4,30.3c-1.5,1.5-1.5,4,0.1,5.5c0.8,0.7,1.7,1.1,2.7,1.1c1,0,2-0.4,2.8-1.2l29.4-30.3
		c1.5-1.5,1.5-4-0.1-5.5C158.6,151.8,156.1,151.8,154.6,153.4z"/>
	<path d="M114.6,194.6l-4.1,4.3c-1.5,1.5-1.5,4,0.1,5.5c0.8,0.7,1.7,1.1,2.7,1.1c1,0,2-0.4,2.8-1.2l4.1-4.3c1.5-1.5,1.5-4-0.1-5.5
		C118.5,193,116.1,193,114.6,194.6z"/>
	<path d="M124.4,153.3c-1.5-1.5-4-1.5-5.5,0.1l-29.4,30.3c-1.5,1.5-1.5,4,0.1,5.5c0.8,0.7,1.7,1.1,2.7,1.1c1,0,2-0.4,2.8-1.2
		l29.4-30.3C126,157.2,125.9,154.8,124.4,153.3z"/>
	<path d="M78.8,194.6l-4.1,4.3c-1.5,1.5-1.5,4,0.1,5.5c0.8,0.7,1.7,1.1,2.7,1.1c1,0,2-0.4,2.8-1.2l4.1-4.3c1.5-1.5,1.5-4-0.1-5.5
		C82.8,193,80.3,193,78.8,194.6z"/>
	<path d="M88.7,153.3c-1.5-1.5-4-1.5-5.5,0.1l-29.4,30.3c-1.5,1.5-1.5,4,0.1,5.5c0.8,0.7,1.7,1.1,2.7,1.1c1,0,2-0.4,2.8-1.2
		l29.4-30.3C90.2,157.2,90.2,154.8,88.7,153.3z"/>
	<path d="M43.1,194.6l-4.1,4.3c-1.5,1.5-1.5,4,0.1,5.5c0.8,0.7,1.7,1.1,2.7,1.1c1,0,2-0.4,2.8-1.2l4.1-4.3c1.5-1.5,1.5-4-0.1-5.5
		C47.1,193,44.6,193,43.1,194.6z"/>
	<path d="M52.9,153.3c-1.5-1.5-4-1.5-5.5,0.1L18,183.6c-1.5,1.5-1.5,4,0.1,5.5c0.8,0.7,1.7,1.1,2.7,1.1c1,0,2-0.4,2.8-1.2L53,158.8
		C54.5,157.2,54.5,154.8,52.9,153.3z"/>
	<path d="M7.4,194.6l-4.1,4.3c-1.5,1.5-1.5,4,0.1,5.5c0.8,0.7,1.7,1.1,2.7,1.1c1,0,2-0.4,2.8-1.2L13,200c1.5-1.5,1.5-4-0.1-5.5
		C11.4,193,8.9,193,7.4,194.6z"/>
</g>
</svg>
