<?xml version="1.0" encoding="utf-8"?>
<!-- Generator: Adobe Illustrator 22.0.1, SVG Export Plug-In . SVG Version: 6.00 Build 0)  -->
<svg version="1.1" id="Calque_1" xmlns="http://www.w3.org/2000/svg" xmlns:xlink="http://www.w3.org/1999/xlink" x="0px" y="0px"
	 viewBox="0 0 212.5 212.7" style="enable-background:new 0 0 212.5 212.7;" xml:space="preserve">
<style type="text/css">
	.st0{fill:#28316F;}
	.st1{fill:#8D8D8E;}
	.st2{fill:#010202;}
</style>
<g>
	<path d="M117.7,168.3l-21.4,22.1c-1.1,1.1-1.1,2.9,0.1,4c0.6,0.5,1.3,0.8,2,0.8c0.7,0,1.5-0.3,2-0.9l21.4-22.1
		c1.1-1.1,1.1-2.9-0.1-4C120.6,167.1,118.8,167.2,117.7,168.3z"/>
	<path d="M88.5,198.3l-3,3.1c-1.1,1.1-1.1,2.9,0.1,4c0.6,0.5,1.3,0.8,2,0.8c0.7,0,1.5-0.3,2-0.9l3-3.1c1.1-1.1,1.1-2.9-0.1-4
		C91.4,197.2,89.6,197.2,88.5,198.3z"/>
	<path d="M95.7,168.2c-1.1-1.1-2.9-1.1-4,0.1l-21.4,22.1c-1.1,1.1-1.1,2.9,0.1,4c0.6,0.5,1.3,0.8,2,0.8c0.7,0,1.5-0.3,2-0.9
		l21.4-22.1C96.9,171.1,96.8,169.3,95.7,168.2z"/>
	<path d="M62.5,198.3l-3,3.1c-1.1,1.1-1.1,2.9,0.1,4c0.6,0.5,1.3,0.8,2,0.8c0.7,0,1.5-0.3,2-0.9l3-3.1c1.1-1.1,1.1-2.9-0.1-4
		C65.4,197.2,63.6,197.2,62.5,198.3z"/>
	<path d="M69.7,168.2c-1.1-1.1-2.9-1.1-4,0.1l-21.4,22.1c-1.1,1.1-1.1,2.9,0.1,4c0.6,0.5,1.3,0.8,2,0.8c0.7,0,1.5-0.3,2-0.9
		l21.4-22.1C70.8,171.1,70.8,169.3,69.7,168.2z"/>
	<path d="M36.5,198.3l-3,3.1c-1.1,1.1-1.1,2.9,0.1,4c0.6,0.5,1.3,0.8,2,0.8c0.7,0,1.5-0.3,2-0.9l3-3.1c1.1-1.1,1.1-2.9-0.1-4
		C39.3,197.2,37.6,197.2,36.5,198.3z"/>
	<path d="M43.6,168.2c-1.1-1.1-2.9-1.1-4,0.1l-21.4,22.1c-1.1,1.1-1.1,2.9,0.1,4c0.6,0.5,1.3,0.8,2,0.8c0.7,0,1.5-0.3,2-0.9
		l21.4-22.1C44.8,171.1,44.7,169.3,43.6,168.2z"/>
	<path d="M10.4,198.3l-3,3.1c-1.1,1.1-1.1,2.9,0.1,4c0.6,0.5,1.3,0.8,2,0.8c0.7,0,1.5-0.3,2-0.9l3-3.1c1.1-1.1,1.1-2.9-0.1-4
		C13.3,197.2,11.5,197.2,10.4,198.3z"/>
	<path d="M162,74.5c0-19.2-15.6-34.8-34.8-34.8c-14.6,0-27.6,9.2-32.6,22.8c0,0,0,0,0,0c-2-0.2-16.1-1.2-25.9,7.6
		c-5,4.5-7.9,10.6-8.8,18.3c-3.2-0.8-8-1.6-14.9-1.6c-6.8,0-13.9,3.4-19.3,9.4c-6.7,7.3-9.9,17.4-8.9,27.5
		c1.9,19.7,19.1,31.8,30.6,31.8c9.1,0,80.3,0.3,81,0.3c0,0,0,0,0,0c0.1,0,0.2,0,0.2,0c10-0.7,28.9-7.6,28.9-28.8
		c0-10.9-2.5-19.7-7.3-26.3C157.6,93.9,162,84.5,162,74.5z M127.2,46.6c15.4,0,27.9,12.5,27.9,27.9c0,8.1-3.5,15.7-9.5,21
		c-0.1,0-0.1-0.1-0.2-0.1c-0.5-0.5-1.1-0.9-1.7-1.3c0,0-0.1-0.1-0.1-0.1c-0.6-0.4-1.2-0.8-1.8-1.2c-0.1-0.1-0.2-0.1-0.3-0.2
		c-0.6-0.4-1.2-0.7-1.9-1c-0.1-0.1-0.2-0.1-0.4-0.2c-0.7-0.3-1.3-0.6-2-0.9c-0.1,0-0.1-0.1-0.2-0.1c-0.7-0.3-1.3-0.5-2-0.7
		c-0.1,0-0.2-0.1-0.3-0.1c-0.7-0.2-1.4-0.4-2.2-0.6c-0.1,0-0.3-0.1-0.4-0.1c-0.7-0.2-1.5-0.3-2.2-0.4c-0.1,0-0.3,0-0.4-0.1
		c-0.8-0.1-1.6-0.2-2.4-0.3c0-0.2-0.1-0.4-0.2-0.7c0-0.1,0-0.2-0.1-0.3c0-0.2-0.1-0.3-0.1-0.5c0-0.1-0.1-0.2-0.1-0.3
		c0-0.1-0.1-0.3-0.1-0.4c0-0.1-0.1-0.2-0.1-0.4c0-0.1-0.1-0.3-0.1-0.4c0-0.1-0.1-0.3-0.1-0.4c0-0.2-0.1-0.3-0.1-0.5
		c0-0.1-0.1-0.3-0.1-0.4c-0.1-0.2-0.1-0.3-0.2-0.5c-0.1-0.1-0.1-0.3-0.2-0.4c-0.1-0.2-0.1-0.3-0.2-0.5c-0.1-0.1-0.1-0.3-0.2-0.5
		c-0.1-0.2-0.1-0.3-0.2-0.5c-0.1-0.2-0.1-0.3-0.2-0.5c-0.1-0.2-0.1-0.3-0.2-0.5c-0.1-0.2-0.1-0.3-0.2-0.5c-0.1-0.2-0.2-0.3-0.2-0.5
		c-0.1-0.2-0.2-0.3-0.2-0.5c-0.1-0.2-0.2-0.4-0.3-0.5c-0.1-0.2-0.2-0.3-0.2-0.5c-0.1-0.2-0.2-0.4-0.3-0.6c-0.1-0.1-0.2-0.3-0.3-0.4
		c-0.1-0.2-0.3-0.5-0.4-0.7c-0.1-0.1-0.2-0.3-0.2-0.4c-0.2-0.3-0.4-0.6-0.6-0.9c-0.1-0.1-0.2-0.3-0.3-0.4c-0.1-0.2-0.3-0.4-0.4-0.6
		c-0.1-0.1-0.2-0.3-0.3-0.4c-0.1-0.2-0.3-0.4-0.4-0.6c-0.1-0.1-0.3-0.3-0.4-0.4c-0.2-0.2-0.3-0.4-0.5-0.5c-0.1-0.1-0.3-0.3-0.4-0.4
		c-0.2-0.2-0.3-0.3-0.5-0.5c-0.1-0.1-0.3-0.3-0.4-0.4c-0.2-0.2-0.3-0.3-0.5-0.5c-0.2-0.1-0.3-0.3-0.5-0.4c-0.2-0.2-0.4-0.3-0.6-0.5
		c-0.2-0.1-0.3-0.3-0.5-0.4c-0.2-0.2-0.4-0.3-0.6-0.5c-0.2-0.1-0.3-0.3-0.5-0.4c-0.2-0.2-0.4-0.3-0.6-0.4c-0.2-0.1-0.4-0.2-0.5-0.4
		c-0.2-0.1-0.5-0.3-0.7-0.4c-0.2-0.1-0.4-0.2-0.6-0.3c-0.2-0.1-0.5-0.3-0.8-0.4c-0.2-0.1-0.4-0.2-0.6-0.3c-0.3-0.1-0.6-0.3-0.9-0.4
		c-0.2-0.1-0.4-0.2-0.5-0.3c-0.4-0.2-0.8-0.3-1.1-0.5c-0.1,0-0.2-0.1-0.3-0.1c-0.5-0.2-1-0.4-1.5-0.5c-0.2-0.1-0.3-0.1-0.5-0.1
		c-0.4-0.1-0.8-0.2-1.2-0.3c-0.2-0.1-0.4-0.1-0.6-0.2c-0.3-0.1-0.7-0.2-1.1-0.3c-0.2-0.1-0.5-0.1-0.7-0.1c-0.3-0.1-0.5-0.1-0.8-0.2
		C106.1,53.2,116.1,46.6,127.2,46.6z M128.2,148.8c-3.6,0-72-0.3-80.9-0.3c-7.2,0-22.2-9-23.8-25.6c-0.8-8.2,1.8-16.3,7.2-22.2
		c4.1-4.5,9.3-7.2,14.2-7.2c11.6,0,16.3,2.5,16.3,2.5c1.1,0.6,2.4,0.6,3.4,0c1.1-0.6,1.7-1.7,1.7-3c0-7.9,2.3-13.9,6.7-17.9
		c8-7.2,20.7-5.9,20.8-5.9c0.1,0,0.3,0,0.4,0c0.8,0,1.6,0,2.4,0.1c1.4,0.1,2.7,0.2,3.9,0.5c0.2,0,0.5,0.1,0.7,0.2
		c0.4,0.1,0.7,0.1,1,0.2c0.4,0.1,0.7,0.2,1,0.3c0.2,0.1,0.4,0.1,0.6,0.2c0.3,0.1,0.6,0.2,0.9,0.3c0.2,0.1,0.5,0.2,0.7,0.2
		c0.4,0.1,0.7,0.3,1.1,0.5c0.1,0.1,0.3,0.1,0.4,0.2c0.4,0.2,0.9,0.4,1.3,0.6c0,0,0.1,0,0.1,0.1c11,6.1,12.2,18.6,12.3,19.3
		c0,0.1,0,0.3,0.1,0.4c0,0.1,0,0.2,0,0.3c0,0.1,0.1,0.2,0.1,0.4c0,0.1,0.1,0.2,0.1,0.2c0.1,0.1,0.1,0.2,0.2,0.3
		c0,0.1,0.1,0.1,0.1,0.2c0.1,0.1,0.2,0.2,0.3,0.3c0.1,0.1,0.1,0.1,0.1,0.2c0.1,0.1,0.2,0.2,0.3,0.2c0.1,0,0.1,0.1,0.2,0.1
		c0.1,0.1,0.3,0.1,0.4,0.2c0.1,0,0.1,0.1,0.2,0.1c0.2,0.1,0.3,0.1,0.5,0.1c0,0,0.1,0,0.1,0c0.2,0,0.4,0.1,0.7,0.1
		c7.7,0,14.2,2.5,18.6,7.3c5.1,5.4,7.8,13.9,7.8,24.5C150.7,146.4,130.1,148.7,128.2,148.8z"/>
	<path d="M89.9,48.3c0.7,0.6,1.5,0.9,2.4,0.9c0.9,0,1.8-0.4,2.5-1.1c1.3-1.4,1.3-3.5-0.1-4.8L81.9,31.2c-1.4-1.3-3.5-1.3-4.8,0.1
		c-1.3,1.4-1.3,3.5,0.1,4.8L89.9,48.3z"/>
	<path d="M123.7,33C123.7,33,123.7,33,123.7,33c1.9,0,3.4-1.5,3.4-3.4l0.1-17.6c0-1.9-1.5-3.4-3.4-3.4c0,0,0,0,0,0
		c-1.9,0-3.4,1.5-3.4,3.4l-0.1,17.6C120.3,31.4,121.8,33,123.7,33z"/>
	<path d="M157.2,44.7c0.8,0,1.7-0.3,2.3-0.9l12.8-12c1.4-1.3,1.4-3.5,0.2-4.8c-1.3-1.4-3.5-1.4-4.8-0.2l-12.8,12
		c-1.4,1.3-1.4,3.5-0.2,4.8C155.3,44.3,156.2,44.7,157.2,44.7z"/>
	<path d="M189.4,71.1l-17.5-1c-1.9-0.1-3.5,1.3-3.6,3.2s1.3,3.5,3.2,3.6l17.5,1c0.1,0,0.1,0,0.2,0c1.8,0,3.3-1.4,3.4-3.2
		C192.7,72.9,191.3,71.3,189.4,71.1z"/>
	<path d="M160.8,104c-1.2-1.4-3.4-1.6-4.8-0.4c-1.4,1.2-1.6,3.4-0.4,4.8l11.3,13.5c0.7,0.8,1.6,1.2,2.6,1.2c0.8,0,1.6-0.3,2.2-0.8
		c1.4-1.2,1.6-3.4,0.4-4.8L160.8,104z"/>
</g>
</svg>
