<?xml version="1.0" encoding="utf-8"?>
<!-- Generator: Adobe Illustrator 22.0.1, SVG Export Plug-In . SVG Version: 6.00 Build 0)  -->
<svg version="1.1" id="Calque_1" xmlns="http://www.w3.org/2000/svg" xmlns:xlink="http://www.w3.org/1999/xlink" x="0px" y="0px"
	 viewBox="0 0 212.5 212.7" style="enable-background:new 0 0 212.5 212.7;" xml:space="preserve">
<style type="text/css">
	.st0{fill:#28316F;}
	.st1{fill:#8D8D8E;}
	.st2{fill:#010202;}
</style>
<path class="st0" d="M103.7,198.5c28.9,0,55.2-14.2,63-39.8h-112C60.7,180.7,77,198.5,103.7,198.5z"/>
<path d="M119.1,14.1c-2-2.9-5.3-4.7-8.9-4.7c0,0,0,0-0.1,0c-3.6,0-6.9,1.8-8.9,4.8c-6.1,9.3-60.1,91.6-60.1,124.3
	c0,6.8,0.8,13.6,2.4,20.2c6.6,27.4,27,50.5,60,50.5c37.7,0,66.5-20.5,74.1-50.5c1.3-5.1,2-10.5,2-16.1
	C179.8,104.7,125.3,23.2,119.1,14.1z M103.7,198.5c-26.7,0-43-17.8-49-39.8c-1.8-6.5-2.7-13.3-2.7-20.2
	c0-30.3,58.3-118.3,58.3-118.3s58.9,86.8,58.9,122.5c0,5.8-0.9,11.1-2.4,16.1C158.9,184.2,132.6,198.5,103.7,198.5z"/>
</svg>
