<?xml version="1.0" encoding="utf-8"?>
<!-- Generator: Adobe Illustrator 22.0.1, SVG Export Plug-In . SVG Version: 6.00 Build 0)  -->
<svg version="1.1" id="Calque_1" xmlns="http://www.w3.org/2000/svg" xmlns:xlink="http://www.w3.org/1999/xlink" x="0px" y="0px"
	 viewBox="0 0 212.5 212.7" style="enable-background:new 0 0 212.5 212.7;" xml:space="preserve">
<style type="text/css">
	.st0{fill:#28316F;}
	.st1{fill:#8D8D8E;}
	.st2{fill:#010202;}
</style>
<g>
	<path d="M106.9,62c-25.8,0-46.7,21-46.7,46.7c0,25.8,21,46.7,46.7,46.7s46.7-21,46.7-46.7C153.6,82.9,132.6,62,106.9,62z
		 M106.9,147.7c-21.5,0-39-17.5-39-39c0-21.5,17.5-39,39-39s39,17.5,39,39C145.9,130.2,128.4,147.7,106.9,147.7z"/>
	<path d="M107.8,49.6c2.1,0,3.8-1.7,3.8-3.8V10.5c0-2.1-1.7-3.8-3.8-3.8c-2.1,0-3.8,1.7-3.8,3.8v35.2
		C104,47.9,105.7,49.6,107.8,49.6z"/>
	<path d="M205,105.8h-35.2c-2.1,0-3.8,1.7-3.8,3.8s1.7,3.8,3.8,3.8H205c2.1,0,3.8-1.7,3.8-3.8S207.2,105.8,205,105.8z"/>
	<path d="M105.9,167.8c-2.1,0-3.8,1.7-3.8,3.8v35.2c0,2.1,1.7,3.8,3.8,3.8c2.1,0,3.8-1.7,3.8-3.8v-35.2
		C109.8,169.5,108.1,167.8,105.9,167.8z"/>
	<path d="M47.8,107.7c0-2.1-1.7-3.8-3.8-3.8H8.7c-2.1,0-3.8,1.7-3.8,3.8c0,2.1,1.7,3.8,3.8,3.8h35.2
		C46.1,111.6,47.8,109.9,47.8,107.7z"/>
	<path d="M152.9,69c1,0,2-0.4,2.7-1.1L180.5,43c1.5-1.5,1.5-3.9,0-5.4c-1.5-1.5-3.9-1.5-5.4,0l-24.9,24.9c-1.5,1.5-1.5,3.9,0,5.4
		C150.9,68.7,151.9,69,152.9,69z"/>
	<path d="M154.3,151.5c-1.5-1.5-3.9-1.5-5.4,0c-1.5,1.5-1.5,3.9,0,5.4l24.9,24.9c0.8,0.8,1.7,1.1,2.7,1.1s2-0.4,2.7-1.1
		c1.5-1.5,1.5-3.9,0-5.4L154.3,151.5z"/>
	<path d="M59.8,150.1L34.9,175c-1.5,1.5-1.5,3.9,0,5.4c0.8,0.8,1.7,1.1,2.7,1.1s2-0.4,2.7-1.1l24.9-24.9c1.5-1.5,1.5-3.9,0-5.4
		C63.7,148.6,61.3,148.6,59.8,150.1z"/>
	<path d="M61.1,66.6c0.8,0.8,1.7,1.1,2.7,1.1c1,0,2-0.4,2.7-1.1c1.5-1.5,1.5-3.9,0-5.4L41.7,36.2c-1.5-1.5-3.9-1.5-5.4,0
		c-1.5,1.5-1.5,3.9,0,5.4L61.1,66.6z"/>
</g>
</svg>
