<?xml version="1.0" encoding="utf-8"?>
<!-- Generator: Adobe Illustrator 22.0.1, SVG Export Plug-In . SVG Version: 6.00 Build 0)  -->
<svg version="1.1" id="Calque_1" xmlns="http://www.w3.org/2000/svg" xmlns:xlink="http://www.w3.org/1999/xlink" x="0px" y="0px"
	 viewBox="0 0 212.5 212.7" style="enable-background:new 0 0 212.5 212.7;" xml:space="preserve">
<style type="text/css">
	.st0{fill:#28316F;}
	.st1{fill:#8D8D8E;}
	.st2{fill:#010202;}
</style>
<g>
	<path d="M105,58.2c1.9,0,3.4-1.5,3.4-3.4V24.2c0-1.9-1.5-3.4-3.4-3.4c-1.9,0-3.4,1.5-3.4,3.4v30.7C101.7,56.7,103.2,58.2,105,58.2z
		"/>
	<path d="M103.4,161.2c-1.9,0-3.4,1.5-3.4,3.4v30.7c0,1.9,1.5,3.4,3.4,3.4s3.4-1.5,3.4-3.4v-30.7
		C106.7,162.7,105.2,161.2,103.4,161.2z"/>
	<path d="M144.3,75.1c0.9,0,1.7-0.3,2.4-1l21.7-21.7c1.3-1.3,1.3-3.4,0-4.7c-1.3-1.3-3.4-1.3-4.7,0l-21.7,21.7
		c-1.3,1.3-1.3,3.4,0,4.7C142.6,74.8,143.4,75.1,144.3,75.1z"/>
	<path d="M145.5,147c-1.3-1.3-3.4-1.3-4.7,0c-1.3,1.3-1.3,3.4,0,4.7l21.7,21.7c0.7,0.7,1.5,1,2.4,1c0.9,0,1.7-0.3,2.4-1
		c1.3-1.3,1.3-3.4,0-4.7L145.5,147z"/>
	<path d="M63.2,145.8l-21.7,21.7c-1.3,1.3-1.3,3.4,0,4.7c0.7,0.7,1.5,1,2.4,1s1.7-0.3,2.4-1l21.7-21.7c1.3-1.3,1.3-3.4,0-4.7
		C66.6,144.5,64.5,144.5,63.2,145.8z"/>
	<path d="M64.4,73c0.7,0.7,1.5,1,2.4,1s1.7-0.3,2.4-1c1.3-1.3,1.3-3.4,0-4.7L47.4,46.6c-1.3-1.3-3.4-1.3-4.7,0
		c-1.3,1.3-1.3,3.4,0,4.7L64.4,73z"/>
	<path d="M197.3,74.2c-7.8-5.9-19.4-2.6-19.9-2.5c-1.9,0.5-3,2.5-2.5,4.4c0.5,1.9,2.5,3,4.4,2.5c2.4-0.7,9.5-1.7,13.6,1.4
		c2.4,1.8,3.7,5.1,3.7,9.8c0,3.6-1,6.3-3.2,8.2c-5.1,4.7-14.7,3.9-14.8,3.9c-0.1,0-0.2,0-0.3,0l-34.3,0c-0.3-1.5-0.7-3-1.1-4.4
		l17.7,0c2,0,3.6-1.6,3.6-3.6c0-2-1.6-3.6-3.6-3.6l-20.8,0C133,77.6,119.6,69,104.2,69c-15.4,0-28.8,8.6-35.7,21.2l-24.8,0
		c-2,0-3.6,1.6-3.6,3.6c0,2,1.6,3.6,3.6,3.6l21.7,0c-0.5,1.4-0.8,2.9-1.1,4.4l-17.1,0c-2,0-3.6,1.6-3.6,3.6c0,2,1.6,3.6,3.6,3.6
		l16.4,0c0,0.2,0,0.5,0,0.7c0,0.9,0,1.9,0.1,2.8l-43.6,0c-2,0-3.6,1.6-3.6,3.6s1.6,3.6,3.6,3.6l44.7,0c4.5,17.6,20.4,30.7,39.4,30.7
		c19,0,35-13.1,39.5-30.8l7.7,0c0.1,0,0.2,0,0.3,0c0.1,0,9.7-0.8,14.8,3.8c2.1,2,3.2,4.6,3.2,8.2c0,4.6-1.2,7.9-3.7,9.8
		c-4.1,3.1-11.2,2-13.6,1.4c-1.9-0.5-3.9,0.6-4.4,2.5c-0.5,1.9,0.6,3.9,2.5,4.4c0.3,0.1,3.6,1,7.9,1c3.8,0,8.3-0.8,12-3.5
		c4.3-3.3,6.5-8.5,6.5-15.5c0-5.6-1.9-10.2-5.6-13.5c-7.1-6.4-18.4-5.8-20.1-5.7l-6.4,0c0.1-0.9,0.1-1.8,0.1-2.7c0-0.2,0-0.5,0-0.7
		l33.4,0c0.3,0,1.1,0.1,2.2,0.1c4,0,12.3-0.7,17.9-5.8c3.7-3.4,5.5-7.9,5.5-13.5C203.9,82.7,201.7,77.4,197.3,74.2z M104.2,75.7
		c11.5,0,21.7,5.7,27.8,14.5l-55.7,0C82.5,81.5,92.7,75.7,104.2,75.7z M72.5,97.4l63.3,0c0.6,1.4,1,2.9,1.4,4.4l-66.1,0
		C71.5,100.3,72,98.8,72.5,97.4z M104.2,143.7c-15.3,0-28.2-10.1-32.5-24l65,0C132.5,133.5,119.5,143.7,104.2,143.7z M138.2,109.7
		c0,0.9,0,1.8-0.1,2.7l-67.7,0.1c-0.1-0.9-0.1-1.8-0.1-2.8c0-0.2,0-0.5,0-0.7l67.9-0.1C138.2,109.2,138.2,109.4,138.2,109.7z"/>
</g>
</svg>
