<?xml version="1.0" encoding="utf-8"?>
<!-- Generator: Adobe Illustrator 22.0.1, SVG Export Plug-In . SVG Version: 6.00 Build 0)  -->
<svg version="1.1" id="Calque_1" xmlns="http://www.w3.org/2000/svg" xmlns:xlink="http://www.w3.org/1999/xlink" x="0px" y="0px"
	 viewBox="0 0 212.5 212.7" style="enable-background:new 0 0 212.5 212.7;" xml:space="preserve">
<style type="text/css">
	.st0{fill:#28316F;}
	.st1{fill:#8D8D8E;}
	.st2{fill:#010202;}
</style>
<g>
	<path d="M152.6,115.4H6.5c-2.2,0-4,1.8-4,4s1.8,4,4,4h146.3c0.1,0,0.3,0,0.4,0c0.1,0,10.8-0.9,16.5,4.3c2.4,2.2,3.5,5.2,3.5,9.1
		c0,5.2-1.4,8.8-4.1,10.9c-4.6,3.5-12.5,2.3-15.2,1.5c-2.1-0.6-4.3,0.6-4.9,2.7c-0.6,2.1,0.6,4.3,2.7,4.9c0.3,0.1,4,1.1,8.8,1.1
		c4.2,0,9.3-0.8,13.4-3.9c4.8-3.7,7.3-9.5,7.3-17.3c0-6.3-2.1-11.3-6.2-15.1C167.1,114.6,154.5,115.3,152.6,115.4z"/>
	<path d="M204.1,72.9c-8.7-6.6-21.6-3-22.2-2.8c-2.1,0.6-3.3,2.8-2.7,4.9c0.6,2.1,2.8,3.4,4.9,2.8c2.7-0.8,10.6-1.9,15.2,1.5
		c2.7,2.1,4.1,5.7,4.1,10.9c0,4-1.2,7-3.5,9.1c-5.7,5.2-16.4,4.3-16.4,4.3c-0.1,0-0.3,0-0.4,0H36.7c-2.2,0-4,1.8-4,4s1.8,4,4,4
		h146.1c0.4,0,1.3,0.1,2.5,0.1c4.5,0,13.7-0.8,19.9-6.4c4.1-3.7,6.2-8.8,6.2-15.1C211.4,82.3,208.9,76.5,204.1,72.9z"/>
	<path d="M32.9,98.7h130.4c2.2,0,4-1.8,4-4s-1.8-4-4-4H32.9c-2.2,0-4,1.8-4,4S30.7,98.7,32.9,98.7z"/>
</g>
</svg>
