<?xml version="1.0" encoding="utf-8"?>
<!-- Generator: Adobe Illustrator 22.0.1, SVG Export Plug-In . SVG Version: 6.00 Build 0)  -->
<svg version="1.1" id="Calque_1" xmlns="http://www.w3.org/2000/svg" xmlns:xlink="http://www.w3.org/1999/xlink" x="0px" y="0px"
	 viewBox="0 0 212.5 212.7" style="enable-background:new 0 0 212.5 212.7;" xml:space="preserve">
<style type="text/css">
	.st0{fill:#28316F;}
	.st1{fill:#8D8D8E;}
	.st2{fill:#010202;}
</style>
<g>
	<path d="M106.6,60c-25.8,0-46.7,21-46.7,46.7s21,46.7,46.7,46.7c25.8,0,46.7-21,46.7-46.7S132.3,60,106.6,60z M106.6,145.7
		c-21.5,0-39-17.5-39-39s17.5-39,39-39c21.5,0,39,17.5,39,39S128.1,145.7,106.6,145.7z"/>
	<path d="M107.5,47.6c2.1,0,3.8-1.7,3.8-3.8V8.5c0-2.1-1.7-3.8-3.8-3.8s-3.8,1.7-3.8,3.8v35.2C103.7,45.9,105.4,47.6,107.5,47.6z"/>
	<path d="M204.7,103.8h-35.2c-2.1,0-3.8,1.7-3.8,3.8c0,2.1,1.7,3.8,3.8,3.8h35.2c2.1,0,3.8-1.7,3.8-3.8
		C208.6,105.5,206.8,103.8,204.7,103.8z"/>
	<path d="M105.6,165.8c-2.1,0-3.8,1.7-3.8,3.8v35.2c0,2.1,1.7,3.8,3.8,3.8c2.1,0,3.8-1.7,3.8-3.8v-35.2
		C109.5,167.5,107.7,165.8,105.6,165.8z"/>
	<path d="M47.5,105.7c0-2.1-1.7-3.8-3.8-3.8H8.4c-2.1,0-3.8,1.7-3.8,3.8c0,2.1,1.7,3.8,3.8,3.8h35.2
		C45.7,109.6,47.5,107.8,47.5,105.7z"/>
	<path d="M152.6,67c1,0,2-0.4,2.7-1.1L180.2,41c1.5-1.5,1.5-3.9,0-5.4c-1.5-1.5-3.9-1.5-5.4,0l-24.9,24.9c-1.5,1.5-1.5,3.9,0,5.4
		C150.6,66.7,151.6,67,152.6,67z"/>
	<path d="M153.9,149.5c-1.5-1.5-3.9-1.5-5.4,0c-1.5,1.5-1.5,3.9,0,5.4l24.9,24.9c0.8,0.8,1.7,1.1,2.7,1.1s2-0.4,2.7-1.1
		c1.5-1.5,1.5-3.9,0-5.4L153.9,149.5z"/>
	<path d="M59.5,148.1L34.6,173c-1.5,1.5-1.5,3.9,0,5.4c0.8,0.8,1.7,1.1,2.7,1.1s2-0.4,2.7-1.1l24.9-24.9c1.5-1.5,1.5-3.9,0-5.4
		C63.4,146.6,61,146.6,59.5,148.1z"/>
	<path d="M60.8,64.5c0.8,0.8,1.7,1.1,2.7,1.1c1,0,2-0.4,2.7-1.1c1.5-1.5,1.5-3.9,0-5.4L41.4,34.2c-1.5-1.5-3.9-1.5-5.4,0
		c-1.5,1.5-1.5,3.9,0,5.4L60.8,64.5z"/>
	<path d="M106.6,77.9c-15.9,0-28.8,12.9-28.8,28.8s12.9,28.8,28.8,28.8s28.8-12.9,28.8-28.8S122.4,77.9,106.6,77.9z"/>
</g>
</svg>
